<mxfile modified="2023-05-16T16:28:37.437Z" host="Electron" agent="Mozilla/5.0 (X11; Linux x86_64) AppleWebKit/537.36 (KHTML, like Gecko) draw.io/21.2.8 Chrome/112.0.5615.165 Electron/24.2.0 Safari/537.36" etag="S2sEG9bRhmUor5RIjS-3" version="21.2.8" type="device" pages="3">
  <diagram id="SOUpMyilc1v6sO0bcS_Z4" name="Create">
    <mxGraphModel dx="1114" dy="1027" grid="1" gridSize="10" guides="1" tooltips="1" connect="1" arrows="1" fold="1" page="1" pageScale="1" pageWidth="850" pageHeight="1100" math="0" shadow="0">
      <root>
        <mxCell id="0" nextCellIdValue="39">
          <ResourceDescriptor resource="_:0" serialization-version="v0" as="resourceDescriptor">
            <SemanticDataContainer serialization-version="v0">
              <StringLiteral content="0" property="https://ontology.security.amazon.dev/foundation/diagram-visualization/a2255956-c3df-4c2c-b489-c307f68abc97" />
              <IRI resource="https://ontology.security.amazon.dev/design-inspector/components/84a80b5f-5642-4a17-9585-ebfdb65f4bec" property="https://ontology.security.amazon.dev/foundation/system-modeling/04539597-4283-4f65-8090-ae67f9d3e949" />
            </SemanticDataContainer>
          </ResourceDescriptor>
        </mxCell>
        <mxCell id="1" parent="0">
          <ResourceDescriptor resource="_:1" serialization-version="v0" as="resourceDescriptor">
            <SemanticDataContainer serialization-version="v0">
              <StringLiteral content="1" property="https://ontology.security.amazon.dev/foundation/diagram-visualization/a2255956-c3df-4c2c-b489-c307f68abc97" />
              <IRI resource="https://ontology.security.amazon.dev/design-inspector/components/84a80b5f-5642-4a17-9585-ebfdb65f4bec" property="https://ontology.security.amazon.dev/foundation/system-modeling/04539597-4283-4f65-8090-ae67f9d3e949" />
            </SemanticDataContainer>
          </ResourceDescriptor>
        </mxCell>
        <object label="&lt;b&gt;AWS CloudFormation&lt;/b&gt;" stencilType="cloudformation" id="_0WKEjGSolQWEmS241A_3-1">
          <mxCell style="points=[[0,0,0],[0.25,0,0],[0.5,0,0],[0.75,0,0],[1,0,0],[0,1,0],[0.25,1,0],[0.5,1,0],[0.75,1,0],[1,1,0],[0,0.25,0],[0,0.5,0],[0,0.75,0],[1,0.25,0],[1,0.5,0],[1,0.75,0]];outlineConnect=0;fontColor=#232F3E;gradientColor=#F34482;gradientDirection=north;fillColor=#BC1356;strokeColor=#ffffff;dashed=0;verticalLabelPosition=bottom;verticalAlign=top;align=center;html=1;fontSize=12;fontStyle=0;aspect=fixed;shape=mxgraph.aws20.resourceIcon;resIcon=mxgraph.aws20.cloudformation;" parent="1" vertex="1" rdfUpgraded="1" assetTypeVersion="3">
            <mxGeometry x="705" y="380" width="70" height="70" as="geometry" />
            <ResourceDescriptor resource="_:_0WKEjGSolQWEmS241A_3-1" serialization-version="v0" as="resourceDescriptor">
              <SemanticDataContainer serialization-version="v0">
                <StringLiteral content="_0WKEjGSolQWEmS241A_3-1" property="https://ontology.security.amazon.dev/foundation/diagram-visualization/a2255956-c3df-4c2c-b489-c307f68abc97" />
                <IRI resource="https://ontology.security.amazon.dev/design-inspector/components/84a80b5f-5642-4a17-9585-ebfdb65f4bec" property="https://ontology.security.amazon.dev/foundation/system-modeling/04539597-4283-4f65-8090-ae67f9d3e949" />
                <IRI resource="https://ontology.security.amazon.dev/design-inspector/components/4f51991f-f3c6-4a47-9b00-013560ab92f4" property="http://www.w3.org/1999/02/22-rdf-syntax-ns#type" />
                <IRI resource="https://ontology.security.amazon.dev/foundation/graph-structure/0b4eeac8-04e5-4e85-869c-bd56fb947b7b" property="http://www.w3.org/1999/02/22-rdf-syntax-ns#type" />
                <StringLiteral content="AWS CloudFormation" property="http://www.w3.org/2000/01/rdf-schema#label" />
                <StringLiteral content="UnknownPage" property="https://ontology.security.amazon.dev/foundation/diagram-visualization/05cc531c-d241-49c3-80dc-bd3777c5426f" />
              </SemanticDataContainer>
            </ResourceDescriptor>
          </mxCell>
        </object>
        <object label="&lt;b&gt;Kubernetes API Server&lt;/b&gt;" stencilType="eks" id="_0WKEjGSolQWEmS241A_3-4">
          <mxCell style="points=[[0,0,0],[0.25,0,0],[0.5,0,0],[0.75,0,0],[1,0,0],[0,1,0],[0.25,1,0],[0.5,1,0],[0.75,1,0],[1,1,0],[0,0.25,0],[0,0.5,0],[0,0.75,0],[1,0.25,0],[1,0.5,0],[1,0.75,0]];outlineConnect=0;fontColor=#232F3E;gradientColor=#F78E04;gradientDirection=north;fillColor=#D05C17;strokeColor=#ffffff;dashed=0;verticalLabelPosition=top;verticalAlign=bottom;align=center;html=1;fontSize=12;fontStyle=0;aspect=fixed;shape=mxgraph.aws20.resourceIcon;resIcon=mxgraph.aws20.eks;labelPosition=center;" parent="1" vertex="1" rdfUpgraded="1" assetTypeVersion="3">
            <mxGeometry x="265" y="240" width="80" height="80" as="geometry" />
            <ResourceDescriptor resource="_:_0WKEjGSolQWEmS241A_3-4" serialization-version="v0" as="resourceDescriptor">
              <SemanticDataContainer serialization-version="v0">
                <StringLiteral content="_0WKEjGSolQWEmS241A_3-4" property="https://ontology.security.amazon.dev/foundation/diagram-visualization/a2255956-c3df-4c2c-b489-c307f68abc97" />
                <IRI resource="https://ontology.security.amazon.dev/design-inspector/components/aaab50ab-4afb-40c3-9a78-a6373ff63d7c" property="https://ontology.security.amazon.dev/foundation/system-modeling/04539597-4283-4f65-8090-ae67f9d3e949" />
                <IRI resource="https://ontology.security.amazon.dev/foundation/graph-structure/0b4eeac8-04e5-4e85-869c-bd56fb947b7b" property="http://www.w3.org/1999/02/22-rdf-syntax-ns#type" />
                <StringLiteral content="Kubernetes API Server" property="http://www.w3.org/2000/01/rdf-schema#label" />
                <StringLiteral content="UnknownPage" property="https://ontology.security.amazon.dev/foundation/diagram-visualization/05cc531c-d241-49c3-80dc-bd3777c5426f" />
              </SemanticDataContainer>
            </ResourceDescriptor>
          </mxCell>
        </object>
        <object label="" stencilType="generic-channel" id="_0WKEjGSolQWEmS241A_3-18">
          <mxCell style="edgeStyle=orthogonalEdgeStyle;rounded=0;html=1;entryX=1;entryY=0.75;entryDx=0;entryDy=0;entryPerimeter=0;jettySize=auto;orthogonalLoop=1;" parent="1" target="_0WKEjGSolQWEmS241A_3-4" edge="1" rdfUpgraded="1" assetTypeVersion="3">
            <mxGeometry relative="1" as="geometry">
              <mxPoint x="510" y="500" as="sourcePoint" />
            </mxGeometry>
            <ResourceDescriptor resource="_:_0WKEjGSolQWEmS241A_3-18" serialization-version="v0" as="resourceDescriptor">
              <SemanticDataContainer serialization-version="v0">
                <StringLiteral content="_0WKEjGSolQWEmS241A_3-18" property="https://ontology.security.amazon.dev/foundation/diagram-visualization/a2255956-c3df-4c2c-b489-c307f68abc97" />
                <StringLiteral content="UnknownPage" property="https://ontology.security.amazon.dev/foundation/diagram-visualization/05cc531c-d241-49c3-80dc-bd3777c5426f" />
                <IRI resource="https://ontology.security.amazon.dev/foundation/graph-structure/65157620-74b7-470e-bd9d-b9bf56b6cb4b" property="http://www.w3.org/1999/02/22-rdf-syntax-ns#type" />
                <IRI resource="https://ontology.security.amazon.dev/design-inspector/components/84a80b5f-5642-4a17-9585-ebfdb65f4bec" property="https://ontology.security.amazon.dev/foundation/system-modeling/04539597-4283-4f65-8090-ae67f9d3e949" />
                <BlankNodeID resource="_:_0WKEjGSolQWEmS241A_3-4" property="https://ontology.security.amazon.dev/foundation/graph-structure/617be0ed-cf17-4a01-a75d-81ed3a472532" />
              </SemanticDataContainer>
            </ResourceDescriptor>
          </mxCell>
        </object>
        <object label="" stencilType="generic-channel" id="_0WKEjGSolQWEmS241A_3-23">
          <mxCell style="edgeStyle=orthogonalEdgeStyle;rounded=0;html=1;jettySize=auto;orthogonalLoop=1;" parent="1" target="_0WKEjGSolQWEmS241A_3-11" edge="1" rdfUpgraded="1" assetTypeVersion="3">
            <mxGeometry relative="1" as="geometry">
              <mxPoint x="510" y="520" as="sourcePoint" />
            </mxGeometry>
            <ResourceDescriptor resource="_:_0WKEjGSolQWEmS241A_3-23" serialization-version="v0" as="resourceDescriptor">
              <SemanticDataContainer serialization-version="v0">
                <StringLiteral content="_0WKEjGSolQWEmS241A_3-23" property="https://ontology.security.amazon.dev/foundation/diagram-visualization/a2255956-c3df-4c2c-b489-c307f68abc97" />
                <StringLiteral content="UnknownPage" property="https://ontology.security.amazon.dev/foundation/diagram-visualization/05cc531c-d241-49c3-80dc-bd3777c5426f" />
                <IRI resource="https://ontology.security.amazon.dev/foundation/graph-structure/65157620-74b7-470e-bd9d-b9bf56b6cb4b" property="http://www.w3.org/1999/02/22-rdf-syntax-ns#type" />
                <IRI resource="https://ontology.security.amazon.dev/design-inspector/components/84a80b5f-5642-4a17-9585-ebfdb65f4bec" property="https://ontology.security.amazon.dev/foundation/system-modeling/04539597-4283-4f65-8090-ae67f9d3e949" />
                <BlankNodeID resource="_:_0WKEjGSolQWEmS241A_3-11" property="https://ontology.security.amazon.dev/foundation/graph-structure/617be0ed-cf17-4a01-a75d-81ed3a472532" />
              </SemanticDataContainer>
            </ResourceDescriptor>
          </mxCell>
        </object>
        <object label="&lt;b&gt;Flux Source Controller&lt;/b&gt;" stencilType="container" id="_0WKEjGSolQWEmS241A_3-5">
          <mxCell style="sketch=0;outlineConnect=0;fontColor=#232F3E;gradientColor=none;fillColor=#D05C17;strokeColor=none;dashed=0;verticalLabelPosition=bottom;verticalAlign=top;align=center;html=1;fontSize=12;fontStyle=0;aspect=fixed;pointerEvents=1;shape=mxgraph.aws4.container_1;fontFamily=Helvetica;" parent="1" vertex="1" rdfUpgraded="1" assetTypeVersion="3">
            <mxGeometry x="515" y="470" width="80" height="80" as="geometry" />
            <ResourceDescriptor resource="_:_0WKEjGSolQWEmS241A_3-5" serialization-version="v0" as="resourceDescriptor">
              <SemanticDataContainer serialization-version="v0">
                <StringLiteral content="_0WKEjGSolQWEmS241A_3-5" property="https://ontology.security.amazon.dev/foundation/diagram-visualization/a2255956-c3df-4c2c-b489-c307f68abc97" />
                <IRI resource="https://ontology.security.amazon.dev/design-inspector/components/84a80b5f-5642-4a17-9585-ebfdb65f4bec" property="https://ontology.security.amazon.dev/foundation/system-modeling/04539597-4283-4f65-8090-ae67f9d3e949" />
                <IRI resource="https://ontology.security.amazon.dev/design-inspector/components/4f51991f-f3c6-4a47-9b00-013560ab92f4" property="http://www.w3.org/1999/02/22-rdf-syntax-ns#type" />
                <IRI resource="https://ontology.security.amazon.dev/foundation/graph-structure/0b4eeac8-04e5-4e85-869c-bd56fb947b7b" property="http://www.w3.org/1999/02/22-rdf-syntax-ns#type" />
                <StringLiteral content="Flux Source Controller" property="http://www.w3.org/2000/01/rdf-schema#label" />
                <StringLiteral content="UnknownPage" property="https://ontology.security.amazon.dev/foundation/diagram-visualization/05cc531c-d241-49c3-80dc-bd3777c5426f" />
              </SemanticDataContainer>
            </ResourceDescriptor>
          </mxCell>
        </object>
        <object label="" stencilType="generic-channel" id="_0WKEjGSolQWEmS241A_3-19">
          <mxCell style="edgeStyle=orthogonalEdgeStyle;rounded=0;html=1;entryX=1;entryY=0.5;entryDx=0;entryDy=0;entryPerimeter=0;jettySize=auto;orthogonalLoop=1;" parent="1" source="_0WKEjGSolQWEmS241A_3-8" target="_0WKEjGSolQWEmS241A_3-4" edge="1" rdfUpgraded="1" assetTypeVersion="3">
            <mxGeometry relative="1" as="geometry" />
            <ResourceDescriptor resource="_:_0WKEjGSolQWEmS241A_3-19" serialization-version="v0" as="resourceDescriptor">
              <SemanticDataContainer serialization-version="v0">
                <StringLiteral content="_0WKEjGSolQWEmS241A_3-19" property="https://ontology.security.amazon.dev/foundation/diagram-visualization/a2255956-c3df-4c2c-b489-c307f68abc97" />
                <IRI resource="https://ontology.security.amazon.dev/design-inspector/components/84a80b5f-5642-4a17-9585-ebfdb65f4bec" property="https://ontology.security.amazon.dev/foundation/system-modeling/04539597-4283-4f65-8090-ae67f9d3e949" />
                <StringLiteral content="UnknownPage" property="https://ontology.security.amazon.dev/foundation/diagram-visualization/05cc531c-d241-49c3-80dc-bd3777c5426f" />
                <IRI resource="https://ontology.security.amazon.dev/foundation/graph-structure/65157620-74b7-470e-bd9d-b9bf56b6cb4b" property="http://www.w3.org/1999/02/22-rdf-syntax-ns#type" />
                <BlankNodeID resource="_:_0WKEjGSolQWEmS241A_3-8" property="https://ontology.security.amazon.dev/foundation/graph-structure/d1fc066e-3862-4ae0-8304-6cef42f40a50" />
                <BlankNodeID resource="_:_0WKEjGSolQWEmS241A_3-4" property="https://ontology.security.amazon.dev/foundation/graph-structure/617be0ed-cf17-4a01-a75d-81ed3a472532" />
              </SemanticDataContainer>
            </ResourceDescriptor>
          </mxCell>
        </object>
        <object label="" stencilType="generic-channel" id="_0WKEjGSolQWEmS241A_3-21">
          <mxCell style="edgeStyle=orthogonalEdgeStyle;rounded=0;html=1;entryX=0;entryY=0.5;entryDx=0;entryDy=0;entryPerimeter=0;jettySize=auto;orthogonalLoop=1;" parent="1" target="_0WKEjGSolQWEmS241A_3-1" edge="1" rdfUpgraded="1" assetTypeVersion="3">
            <mxGeometry relative="1" as="geometry">
              <mxPoint x="600" y="290" as="sourcePoint" />
            </mxGeometry>
            <ResourceDescriptor resource="_:_0WKEjGSolQWEmS241A_3-21" serialization-version="v0" as="resourceDescriptor">
              <SemanticDataContainer serialization-version="v0">
                <StringLiteral content="_0WKEjGSolQWEmS241A_3-21" property="https://ontology.security.amazon.dev/foundation/diagram-visualization/a2255956-c3df-4c2c-b489-c307f68abc97" />
                <StringLiteral content="UnknownPage" property="https://ontology.security.amazon.dev/foundation/diagram-visualization/05cc531c-d241-49c3-80dc-bd3777c5426f" />
                <IRI resource="https://ontology.security.amazon.dev/design-inspector/components/84a80b5f-5642-4a17-9585-ebfdb65f4bec" property="https://ontology.security.amazon.dev/foundation/system-modeling/04539597-4283-4f65-8090-ae67f9d3e949" />
                <IRI resource="https://ontology.security.amazon.dev/foundation/graph-structure/65157620-74b7-470e-bd9d-b9bf56b6cb4b" property="http://www.w3.org/1999/02/22-rdf-syntax-ns#type" />
                <BlankNodeID resource="_:_0WKEjGSolQWEmS241A_3-1" property="https://ontology.security.amazon.dev/foundation/graph-structure/617be0ed-cf17-4a01-a75d-81ed3a472532" />
              </SemanticDataContainer>
            </ResourceDescriptor>
          </mxCell>
        </object>
        <object label="" stencilType="generic-channel" id="_0WKEjGSolQWEmS241A_3-22">
          <mxCell style="edgeStyle=orthogonalEdgeStyle;rounded=0;html=1;jettySize=auto;orthogonalLoop=1;" parent="1" source="_0WKEjGSolQWEmS241A_3-8" target="_0WKEjGSolQWEmS241A_3-5" edge="1" rdfUpgraded="1" assetTypeVersion="3">
            <mxGeometry relative="1" as="geometry" />
            <ResourceDescriptor resource="_:_0WKEjGSolQWEmS241A_3-22" serialization-version="v0" as="resourceDescriptor">
              <SemanticDataContainer serialization-version="v0">
                <StringLiteral content="_0WKEjGSolQWEmS241A_3-22" property="https://ontology.security.amazon.dev/foundation/diagram-visualization/a2255956-c3df-4c2c-b489-c307f68abc97" />
                <IRI resource="https://ontology.security.amazon.dev/design-inspector/components/84a80b5f-5642-4a17-9585-ebfdb65f4bec" property="https://ontology.security.amazon.dev/foundation/system-modeling/04539597-4283-4f65-8090-ae67f9d3e949" />
                <StringLiteral content="UnknownPage" property="https://ontology.security.amazon.dev/foundation/diagram-visualization/05cc531c-d241-49c3-80dc-bd3777c5426f" />
                <IRI resource="https://ontology.security.amazon.dev/foundation/graph-structure/65157620-74b7-470e-bd9d-b9bf56b6cb4b" property="http://www.w3.org/1999/02/22-rdf-syntax-ns#type" />
                <BlankNodeID resource="_:_0WKEjGSolQWEmS241A_3-8" property="https://ontology.security.amazon.dev/foundation/graph-structure/d1fc066e-3862-4ae0-8304-6cef42f40a50" />
                <BlankNodeID resource="_:_0WKEjGSolQWEmS241A_3-5" property="https://ontology.security.amazon.dev/foundation/graph-structure/617be0ed-cf17-4a01-a75d-81ed3a472532" />
              </SemanticDataContainer>
            </ResourceDescriptor>
          </mxCell>
        </object>
        <object label="" stencilType="generic-channel" id="_nm1d2nPAYFvigHrUNV_H-36">
          <mxCell style="edgeStyle=orthogonalEdgeStyle;rounded=0;html=1;jettySize=auto;orthogonalLoop=1;" parent="1" source="_0WKEjGSolQWEmS241A_3-8" target="_nm1d2nPAYFvigHrUNV_H-35" edge="1" rdfUpgraded="1" assetTypeVersion="3">
            <mxGeometry relative="1" as="geometry" />
            <ResourceDescriptor resource="_:_nm1d2nPAYFvigHrUNV_H-36" serialization-version="v0" as="resourceDescriptor">
              <SemanticDataContainer serialization-version="v0">
                <StringLiteral content="_nm1d2nPAYFvigHrUNV_H-36" property="https://ontology.security.amazon.dev/foundation/diagram-visualization/a2255956-c3df-4c2c-b489-c307f68abc97" />
                <BlankNodeID resource="_:_0WKEjGSolQWEmS241A_3-8" property="https://ontology.security.amazon.dev/foundation/graph-structure/d1fc066e-3862-4ae0-8304-6cef42f40a50" />
                <BlankNodeID resource="_:_nm1d2nPAYFvigHrUNV_H-35" property="https://ontology.security.amazon.dev/foundation/graph-structure/617be0ed-cf17-4a01-a75d-81ed3a472532" />
                <IRI resource="https://ontology.security.amazon.dev/foundation/graph-structure/65157620-74b7-470e-bd9d-b9bf56b6cb4b" property="http://www.w3.org/1999/02/22-rdf-syntax-ns#type" />
                <IRI resource="https://ontology.security.amazon.dev/design-inspector/components/84a80b5f-5642-4a17-9585-ebfdb65f4bec" property="https://ontology.security.amazon.dev/foundation/system-modeling/04539597-4283-4f65-8090-ae67f9d3e949" />
                <StringLiteral content="UnknownPage" property="https://ontology.security.amazon.dev/foundation/diagram-visualization/05cc531c-d241-49c3-80dc-bd3777c5426f" />
              </SemanticDataContainer>
            </ResourceDescriptor>
          </mxCell>
        </object>
        <object label="&lt;b&gt;Flux CFN Controller&lt;br&gt;&lt;/b&gt;" stencilType="container" id="_0WKEjGSolQWEmS241A_3-8">
          <mxCell style="sketch=0;outlineConnect=0;fontColor=#232F3E;gradientColor=none;fillColor=#D05C17;strokeColor=none;dashed=0;verticalLabelPosition=top;verticalAlign=bottom;align=center;html=1;fontSize=12;fontStyle=0;aspect=fixed;pointerEvents=1;shape=mxgraph.aws4.container_1;fontFamily=Helvetica;labelPosition=center;" parent="1" vertex="1" rdfUpgraded="1" assetTypeVersion="3">
            <mxGeometry x="515" y="240" width="80" height="80" as="geometry" />
            <ResourceDescriptor resource="_:_0WKEjGSolQWEmS241A_3-8" serialization-version="v0" as="resourceDescriptor">
              <SemanticDataContainer serialization-version="v0">
                <IRI resource="https://ontology.security.amazon.dev/design-inspector/components/4f51991f-f3c6-4a47-9b00-013560ab92f4" property="http://www.w3.org/1999/02/22-rdf-syntax-ns#type" />
                <IRI resource="https://ontology.security.amazon.dev/foundation/graph-structure/0b4eeac8-04e5-4e85-869c-bd56fb947b7b" property="http://www.w3.org/1999/02/22-rdf-syntax-ns#type" />
                <IRI resource="https://ontology.security.amazon.dev/design-inspector/components/84a80b5f-5642-4a17-9585-ebfdb65f4bec" property="https://ontology.security.amazon.dev/foundation/system-modeling/04539597-4283-4f65-8090-ae67f9d3e949" />
                <StringLiteral content="UnknownPage" property="https://ontology.security.amazon.dev/foundation/diagram-visualization/05cc531c-d241-49c3-80dc-bd3777c5426f" />
                <StringLiteral content="Flux CFN Controller" property="http://www.w3.org/2000/01/rdf-schema#label" />
                <StringLiteral content="_0WKEjGSolQWEmS241A_3-8" property="https://ontology.security.amazon.dev/foundation/diagram-visualization/a2255956-c3df-4c2c-b489-c307f68abc97" />
              </SemanticDataContainer>
            </ResourceDescriptor>
          </mxCell>
        </object>
        <object label="&lt;b&gt;Git Repository&lt;br&gt;&lt;/b&gt;" stencilType="codecommit" id="_0WKEjGSolQWEmS241A_3-11">
          <mxCell style="points=[[0,0,0],[0.25,0,0],[0.5,0,0],[0.75,0,0],[1,0,0],[0,1,0],[0.25,1,0],[0.5,1,0],[0.75,1,0],[1,1,0],[0,0.25,0],[0,0.5,0],[0,0.75,0],[1,0.25,0],[1,0.5,0],[1,0.75,0]];outlineConnect=0;fontColor=#232F3E;gradientColor=#4D72F3;gradientDirection=north;fillColor=#3334B9;strokeColor=#ffffff;dashed=0;verticalLabelPosition=bottom;verticalAlign=top;align=center;html=1;fontSize=12;fontStyle=0;aspect=fixed;shape=mxgraph.aws20.resourceIcon;resIcon=mxgraph.aws20.codecommit;" parent="1" vertex="1" rdfUpgraded="1" assetTypeVersion="3">
            <mxGeometry x="265" y="480" width="80" height="80" as="geometry" />
            <ResourceDescriptor resource="_:_0WKEjGSolQWEmS241A_3-11" serialization-version="v0" as="resourceDescriptor">
              <SemanticDataContainer serialization-version="v0">
                <StringLiteral content="_0WKEjGSolQWEmS241A_3-11" property="https://ontology.security.amazon.dev/foundation/diagram-visualization/a2255956-c3df-4c2c-b489-c307f68abc97" />
                <IRI resource="https://ontology.security.amazon.dev/design-inspector/components/84a80b5f-5642-4a17-9585-ebfdb65f4bec" property="https://ontology.security.amazon.dev/foundation/system-modeling/04539597-4283-4f65-8090-ae67f9d3e949" />
                <IRI resource="https://ontology.security.amazon.dev/design-inspector/components/4f51991f-f3c6-4a47-9b00-013560ab92f4" property="http://www.w3.org/1999/02/22-rdf-syntax-ns#type" />
                <IRI resource="https://ontology.security.amazon.dev/foundation/graph-structure/0b4eeac8-04e5-4e85-869c-bd56fb947b7b" property="http://www.w3.org/1999/02/22-rdf-syntax-ns#type" />
                <StringLiteral content="Git Repository" property="http://www.w3.org/2000/01/rdf-schema#label" />
                <StringLiteral content="UnknownPage" property="https://ontology.security.amazon.dev/foundation/diagram-visualization/05cc531c-d241-49c3-80dc-bd3777c5426f" />
              </SemanticDataContainer>
            </ResourceDescriptor>
          </mxCell>
        </object>
        <object label="" stencilType="generic-channel" id="_0WKEjGSolQWEmS241A_3-14">
          <mxCell style="edgeStyle=orthogonalEdgeStyle;rounded=0;html=1;entryX=0;entryY=0.5;entryDx=0;entryDy=0;entryPerimeter=0;jettySize=auto;orthogonalLoop=1;" parent="1" target="_0WKEjGSolQWEmS241A_3-4" edge="1" rdfUpgraded="1" assetTypeVersion="3">
            <mxGeometry relative="1" as="geometry">
              <mxPoint x="110" y="380" as="sourcePoint" />
            </mxGeometry>
            <ResourceDescriptor resource="_:_0WKEjGSolQWEmS241A_3-14" serialization-version="v0" as="resourceDescriptor">
              <SemanticDataContainer serialization-version="v0">
                <StringLiteral content="_0WKEjGSolQWEmS241A_3-14" property="https://ontology.security.amazon.dev/foundation/diagram-visualization/a2255956-c3df-4c2c-b489-c307f68abc97" />
                <StringLiteral content="UnknownPage" property="https://ontology.security.amazon.dev/foundation/diagram-visualization/05cc531c-d241-49c3-80dc-bd3777c5426f" />
                <IRI resource="https://ontology.security.amazon.dev/foundation/graph-structure/65157620-74b7-470e-bd9d-b9bf56b6cb4b" property="http://www.w3.org/1999/02/22-rdf-syntax-ns#type" />
                <IRI resource="https://ontology.security.amazon.dev/design-inspector/components/84a80b5f-5642-4a17-9585-ebfdb65f4bec" property="https://ontology.security.amazon.dev/foundation/system-modeling/04539597-4283-4f65-8090-ae67f9d3e949" />
                <BlankNodeID resource="_:_0WKEjGSolQWEmS241A_3-4" property="https://ontology.security.amazon.dev/foundation/graph-structure/617be0ed-cf17-4a01-a75d-81ed3a472532" />
              </SemanticDataContainer>
            </ResourceDescriptor>
          </mxCell>
        </object>
        <object label="" stencilType="generic-channel" id="_0WKEjGSolQWEmS241A_3-15">
          <mxCell style="edgeStyle=orthogonalEdgeStyle;rounded=0;html=1;entryX=0;entryY=0.5;entryDx=0;entryDy=0;entryPerimeter=0;jettySize=auto;orthogonalLoop=1;" parent="1" target="_0WKEjGSolQWEmS241A_3-11" edge="1" rdfUpgraded="1" assetTypeVersion="3">
            <mxGeometry relative="1" as="geometry">
              <mxPoint x="110" y="400" as="sourcePoint" />
            </mxGeometry>
            <ResourceDescriptor resource="_:_0WKEjGSolQWEmS241A_3-15" serialization-version="v0" as="resourceDescriptor">
              <SemanticDataContainer serialization-version="v0">
                <StringLiteral content="_0WKEjGSolQWEmS241A_3-15" property="https://ontology.security.amazon.dev/foundation/diagram-visualization/a2255956-c3df-4c2c-b489-c307f68abc97" />
                <StringLiteral content="UnknownPage" property="https://ontology.security.amazon.dev/foundation/diagram-visualization/05cc531c-d241-49c3-80dc-bd3777c5426f" />
                <IRI resource="https://ontology.security.amazon.dev/foundation/graph-structure/65157620-74b7-470e-bd9d-b9bf56b6cb4b" property="http://www.w3.org/1999/02/22-rdf-syntax-ns#type" />
                <IRI resource="https://ontology.security.amazon.dev/design-inspector/components/84a80b5f-5642-4a17-9585-ebfdb65f4bec" property="https://ontology.security.amazon.dev/foundation/system-modeling/04539597-4283-4f65-8090-ae67f9d3e949" />
                <BlankNodeID resource="_:_0WKEjGSolQWEmS241A_3-11" property="https://ontology.security.amazon.dev/foundation/graph-structure/617be0ed-cf17-4a01-a75d-81ed3a472532" />
              </SemanticDataContainer>
            </ResourceDescriptor>
          </mxCell>
        </object>
        <object label="&lt;div&gt;&lt;b&gt;User&lt;/b&gt;&lt;/div&gt;" stencilType="actor" id="_0WKEjGSolQWEmS241A_3-12">
          <mxCell style="shape=umlActor;verticalLabelPosition=bottom;labelBackgroundColor=#ffffff;verticalAlign=top;html=1;outlineConnect=0;" parent="1" vertex="1" rdfUpgraded="1" assetTypeVersion="3">
            <mxGeometry x="50" y="340" width="50" height="100" as="geometry" />
            <ResourceDescriptor resource="_:_0WKEjGSolQWEmS241A_3-12" serialization-version="v0" as="resourceDescriptor">
              <SemanticDataContainer serialization-version="v0">
                <StringLiteral content="_0WKEjGSolQWEmS241A_3-12" property="https://ontology.security.amazon.dev/foundation/diagram-visualization/a2255956-c3df-4c2c-b489-c307f68abc97" />
                <IRI resource="https://ontology.security.amazon.dev/foundation/system-modeling/a8c50ddd-aa98-48ce-a1ac-5a95ff514e73" property="https://ontology.security.amazon.dev/foundation/system-modeling/04539597-4283-4f65-8090-ae67f9d3e949" />
                <IRI resource="https://ontology.security.amazon.dev/foundation/graph-structure/0b4eeac8-04e5-4e85-869c-bd56fb947b7b" property="http://www.w3.org/1999/02/22-rdf-syntax-ns#type" />
                <StringLiteral content="User" property="http://www.w3.org/2000/01/rdf-schema#label" />
                <StringLiteral content="UnknownPage" property="https://ontology.security.amazon.dev/foundation/diagram-visualization/05cc531c-d241-49c3-80dc-bd3777c5426f" />
              </SemanticDataContainer>
            </ResourceDescriptor>
          </mxCell>
        </object>
        <object label="&lt;b&gt;4&lt;/b&gt;" stencilType="text" id="_0WKEjGSolQWEmS241A_3-16">
          <mxCell style="text;html=1;strokeColor=none;fillColor=none;align=right;verticalAlign=middle;whiteSpace=wrap;rounded=0;" parent="1" vertex="1" rdfUpgraded="1" assetTypeVersion="3">
            <mxGeometry x="140" y="450" width="40" height="20" as="geometry" />
            <ResourceDescriptor resource="_:_0WKEjGSolQWEmS241A_3-16" serialization-version="v0" as="resourceDescriptor">
              <SemanticDataContainer serialization-version="v0">
                <StringLiteral content="_0WKEjGSolQWEmS241A_3-16" property="https://ontology.security.amazon.dev/foundation/diagram-visualization/a2255956-c3df-4c2c-b489-c307f68abc97" />
                <IRI resource="https://ontology.security.amazon.dev/design-inspector/components/4f51991f-f3c6-4a47-9b00-013560ab92f4" property="http://www.w3.org/1999/02/22-rdf-syntax-ns#type" />
                <IRI resource="https://ontology.security.amazon.dev/foundation/graph-structure/0b4eeac8-04e5-4e85-869c-bd56fb947b7b" property="http://www.w3.org/1999/02/22-rdf-syntax-ns#type" />
                <IRI resource="https://ontology.security.amazon.dev/design-inspector/components/84a80b5f-5642-4a17-9585-ebfdb65f4bec" property="https://ontology.security.amazon.dev/foundation/system-modeling/04539597-4283-4f65-8090-ae67f9d3e949" />
                <StringLiteral content="4" property="http://www.w3.org/2000/01/rdf-schema#label" />
                <StringLiteral content="UnknownPage" property="https://ontology.security.amazon.dev/foundation/diagram-visualization/05cc531c-d241-49c3-80dc-bd3777c5426f" />
              </SemanticDataContainer>
            </ResourceDescriptor>
          </mxCell>
        </object>
        <object label="&lt;b&gt;2, 6&lt;br&gt;&lt;/b&gt;" stencilType="text" id="_0WKEjGSolQWEmS241A_3-24">
          <mxCell style="text;html=1;strokeColor=none;fillColor=none;align=left;verticalAlign=middle;whiteSpace=wrap;rounded=0;" parent="1" vertex="1" rdfUpgraded="1" assetTypeVersion="3">
            <mxGeometry x="440" y="400" width="40" height="20" as="geometry" />
            <ResourceDescriptor resource="_:_0WKEjGSolQWEmS241A_3-24" serialization-version="v0" as="resourceDescriptor">
              <SemanticDataContainer serialization-version="v0">
                <IRI resource="https://ontology.security.amazon.dev/design-inspector/components/84a80b5f-5642-4a17-9585-ebfdb65f4bec" property="https://ontology.security.amazon.dev/foundation/system-modeling/04539597-4283-4f65-8090-ae67f9d3e949" />
                <IRI resource="https://ontology.security.amazon.dev/design-inspector/components/4f51991f-f3c6-4a47-9b00-013560ab92f4" property="http://www.w3.org/1999/02/22-rdf-syntax-ns#type" />
                <IRI resource="https://ontology.security.amazon.dev/foundation/graph-structure/0b4eeac8-04e5-4e85-869c-bd56fb947b7b" property="http://www.w3.org/1999/02/22-rdf-syntax-ns#type" />
                <StringLiteral content="UnknownPage" property="https://ontology.security.amazon.dev/foundation/diagram-visualization/05cc531c-d241-49c3-80dc-bd3777c5426f" />
                <StringLiteral content="2, 6" property="http://www.w3.org/2000/01/rdf-schema#label" />
                <StringLiteral content="_0WKEjGSolQWEmS241A_3-24" property="https://ontology.security.amazon.dev/foundation/diagram-visualization/a2255956-c3df-4c2c-b489-c307f68abc97" />
              </SemanticDataContainer>
            </ResourceDescriptor>
          </mxCell>
        </object>
        <object label="&lt;b&gt;3, 5&lt;br&gt;&lt;/b&gt;" stencilType="text" id="_0WKEjGSolQWEmS241A_3-25">
          <mxCell style="text;html=1;strokeColor=none;fillColor=none;align=center;verticalAlign=middle;whiteSpace=wrap;rounded=0;" parent="1" vertex="1" rdfUpgraded="1" assetTypeVersion="3">
            <mxGeometry x="405" y="523" width="40" height="20" as="geometry" />
            <ResourceDescriptor resource="_:_0WKEjGSolQWEmS241A_3-25" serialization-version="v0" as="resourceDescriptor">
              <SemanticDataContainer serialization-version="v0">
                <IRI resource="https://ontology.security.amazon.dev/design-inspector/components/84a80b5f-5642-4a17-9585-ebfdb65f4bec" property="https://ontology.security.amazon.dev/foundation/system-modeling/04539597-4283-4f65-8090-ae67f9d3e949" />
                <IRI resource="https://ontology.security.amazon.dev/design-inspector/components/4f51991f-f3c6-4a47-9b00-013560ab92f4" property="http://www.w3.org/1999/02/22-rdf-syntax-ns#type" />
                <IRI resource="https://ontology.security.amazon.dev/foundation/graph-structure/0b4eeac8-04e5-4e85-869c-bd56fb947b7b" property="http://www.w3.org/1999/02/22-rdf-syntax-ns#type" />
                <StringLiteral content="UnknownPage" property="https://ontology.security.amazon.dev/foundation/diagram-visualization/05cc531c-d241-49c3-80dc-bd3777c5426f" />
                <StringLiteral content="3, 5" property="http://www.w3.org/2000/01/rdf-schema#label" />
                <StringLiteral content="_0WKEjGSolQWEmS241A_3-25" property="https://ontology.security.amazon.dev/foundation/diagram-visualization/a2255956-c3df-4c2c-b489-c307f68abc97" />
              </SemanticDataContainer>
            </ResourceDescriptor>
          </mxCell>
        </object>
        <object label="&lt;font style=&quot;font-size: 12px&quot;&gt;&lt;b&gt;&lt;font style=&quot;font-size: 12px&quot;&gt;&lt;font style=&quot;font-size: 12px&quot;&gt;&lt;font style=&quot;font-size: 12px&quot;&gt;1, 7&lt;br&gt;&lt;/font&gt;&lt;/font&gt;&lt;/font&gt;&lt;/b&gt;&lt;/font&gt;" stencilType="text" id="_0WKEjGSolQWEmS241A_3-29">
          <mxCell style="text;html=1;strokeColor=none;fillColor=none;align=right;verticalAlign=middle;whiteSpace=wrap;rounded=0;" parent="1" vertex="1" rdfUpgraded="1" assetTypeVersion="3">
            <mxGeometry x="140" y="320" width="40" height="20" as="geometry" />
            <ResourceDescriptor resource="_:_0WKEjGSolQWEmS241A_3-29" serialization-version="v0" as="resourceDescriptor">
              <SemanticDataContainer serialization-version="v0">
                <IRI resource="https://ontology.security.amazon.dev/design-inspector/components/84a80b5f-5642-4a17-9585-ebfdb65f4bec" property="https://ontology.security.amazon.dev/foundation/system-modeling/04539597-4283-4f65-8090-ae67f9d3e949" />
                <IRI resource="https://ontology.security.amazon.dev/design-inspector/components/4f51991f-f3c6-4a47-9b00-013560ab92f4" property="http://www.w3.org/1999/02/22-rdf-syntax-ns#type" />
                <IRI resource="https://ontology.security.amazon.dev/foundation/graph-structure/0b4eeac8-04e5-4e85-869c-bd56fb947b7b" property="http://www.w3.org/1999/02/22-rdf-syntax-ns#type" />
                <StringLiteral content="UnknownPage" property="https://ontology.security.amazon.dev/foundation/diagram-visualization/05cc531c-d241-49c3-80dc-bd3777c5426f" />
                <StringLiteral content="1, 7" property="http://www.w3.org/2000/01/rdf-schema#label" />
                <StringLiteral content="_0WKEjGSolQWEmS241A_3-29" property="https://ontology.security.amazon.dev/foundation/diagram-visualization/a2255956-c3df-4c2c-b489-c307f68abc97" />
              </SemanticDataContainer>
            </ResourceDescriptor>
          </mxCell>
        </object>
        <object label="&lt;b&gt;8, 9, 13&lt;br&gt;&lt;/b&gt;" stencilType="text" id="_0WKEjGSolQWEmS241A_3-30">
          <mxCell style="text;html=1;strokeColor=none;fillColor=none;align=center;verticalAlign=middle;whiteSpace=wrap;rounded=0;" parent="1" vertex="1" rdfUpgraded="1" assetTypeVersion="3">
            <mxGeometry x="400" y="257" width="60" height="20" as="geometry" />
            <ResourceDescriptor resource="_:_0WKEjGSolQWEmS241A_3-30" serialization-version="v0" as="resourceDescriptor">
              <SemanticDataContainer serialization-version="v0">
                <IRI resource="https://ontology.security.amazon.dev/design-inspector/components/84a80b5f-5642-4a17-9585-ebfdb65f4bec" property="https://ontology.security.amazon.dev/foundation/system-modeling/04539597-4283-4f65-8090-ae67f9d3e949" />
                <IRI resource="https://ontology.security.amazon.dev/design-inspector/components/4f51991f-f3c6-4a47-9b00-013560ab92f4" property="http://www.w3.org/1999/02/22-rdf-syntax-ns#type" />
                <IRI resource="https://ontology.security.amazon.dev/foundation/graph-structure/0b4eeac8-04e5-4e85-869c-bd56fb947b7b" property="http://www.w3.org/1999/02/22-rdf-syntax-ns#type" />
                <StringLiteral content="UnknownPage" property="https://ontology.security.amazon.dev/foundation/diagram-visualization/05cc531c-d241-49c3-80dc-bd3777c5426f" />
                <StringLiteral content="8, 9, 13" property="http://www.w3.org/2000/01/rdf-schema#label" />
                <StringLiteral content="_0WKEjGSolQWEmS241A_3-30" property="https://ontology.security.amazon.dev/foundation/diagram-visualization/a2255956-c3df-4c2c-b489-c307f68abc97" />
              </SemanticDataContainer>
            </ResourceDescriptor>
          </mxCell>
        </object>
        <object label="&lt;b&gt;10&lt;/b&gt;" stencilType="text" id="_0WKEjGSolQWEmS241A_3-31">
          <mxCell style="text;html=1;strokeColor=none;fillColor=none;align=left;verticalAlign=middle;whiteSpace=wrap;rounded=0;" parent="1" vertex="1" rdfUpgraded="1" assetTypeVersion="3">
            <mxGeometry x="563" y="380" width="40" height="20" as="geometry" />
            <ResourceDescriptor resource="_:_0WKEjGSolQWEmS241A_3-31" serialization-version="v0" as="resourceDescriptor">
              <SemanticDataContainer serialization-version="v0">
                <IRI resource="https://ontology.security.amazon.dev/design-inspector/components/84a80b5f-5642-4a17-9585-ebfdb65f4bec" property="https://ontology.security.amazon.dev/foundation/system-modeling/04539597-4283-4f65-8090-ae67f9d3e949" />
                <IRI resource="https://ontology.security.amazon.dev/design-inspector/components/4f51991f-f3c6-4a47-9b00-013560ab92f4" property="http://www.w3.org/1999/02/22-rdf-syntax-ns#type" />
                <IRI resource="https://ontology.security.amazon.dev/foundation/graph-structure/0b4eeac8-04e5-4e85-869c-bd56fb947b7b" property="http://www.w3.org/1999/02/22-rdf-syntax-ns#type" />
                <StringLiteral content="UnknownPage" property="https://ontology.security.amazon.dev/foundation/diagram-visualization/05cc531c-d241-49c3-80dc-bd3777c5426f" />
                <StringLiteral content="10" property="http://www.w3.org/2000/01/rdf-schema#label" />
                <StringLiteral content="_0WKEjGSolQWEmS241A_3-31" property="https://ontology.security.amazon.dev/foundation/diagram-visualization/a2255956-c3df-4c2c-b489-c307f68abc97" />
              </SemanticDataContainer>
            </ResourceDescriptor>
          </mxCell>
        </object>
        <object label="&lt;b&gt;12&lt;/b&gt;" stencilType="text" id="_0WKEjGSolQWEmS241A_3-33">
          <mxCell style="text;html=1;strokeColor=none;fillColor=none;align=left;verticalAlign=middle;whiteSpace=wrap;rounded=0;" parent="1" vertex="1" rdfUpgraded="1" assetTypeVersion="3">
            <mxGeometry x="662" y="330" width="40" height="20" as="geometry" />
            <ResourceDescriptor resource="_:_0WKEjGSolQWEmS241A_3-33" serialization-version="v0" as="resourceDescriptor">
              <SemanticDataContainer serialization-version="v0">
                <IRI resource="https://ontology.security.amazon.dev/design-inspector/components/84a80b5f-5642-4a17-9585-ebfdb65f4bec" property="https://ontology.security.amazon.dev/foundation/system-modeling/04539597-4283-4f65-8090-ae67f9d3e949" />
                <IRI resource="https://ontology.security.amazon.dev/design-inspector/components/4f51991f-f3c6-4a47-9b00-013560ab92f4" property="http://www.w3.org/1999/02/22-rdf-syntax-ns#type" />
                <IRI resource="https://ontology.security.amazon.dev/foundation/graph-structure/0b4eeac8-04e5-4e85-869c-bd56fb947b7b" property="http://www.w3.org/1999/02/22-rdf-syntax-ns#type" />
                <StringLiteral content="UnknownPage" property="https://ontology.security.amazon.dev/foundation/diagram-visualization/05cc531c-d241-49c3-80dc-bd3777c5426f" />
                <StringLiteral content="12" property="http://www.w3.org/2000/01/rdf-schema#label" />
                <StringLiteral content="_0WKEjGSolQWEmS241A_3-33" property="https://ontology.security.amazon.dev/foundation/diagram-visualization/a2255956-c3df-4c2c-b489-c307f68abc97" />
              </SemanticDataContainer>
            </ResourceDescriptor>
          </mxCell>
        </object>
        <object label="&lt;div&gt;&lt;b&gt;S3 bucket&lt;/b&gt;&lt;/div&gt;&lt;div&gt;&lt;b&gt;for template files&lt;br&gt;&lt;/b&gt;&lt;/div&gt;" stencilType="bucket" id="_nm1d2nPAYFvigHrUNV_H-35">
          <mxCell style="sketch=0;outlineConnect=0;fontColor=#232F3E;gradientColor=none;fillColor=#277116;strokeColor=none;dashed=0;verticalLabelPosition=top;verticalAlign=bottom;align=center;html=1;fontSize=12;fontStyle=0;aspect=fixed;pointerEvents=1;shape=mxgraph.aws4.bucket;fontFamily=Helvetica;labelPosition=center;" parent="1" vertex="1" rdfUpgraded="1" assetTypeVersion="3">
            <mxGeometry x="710" y="250" width="60" height="60" as="geometry" />
            <ResourceDescriptor resource="_:_nm1d2nPAYFvigHrUNV_H-35" serialization-version="v0" as="resourceDescriptor">
              <SemanticDataContainer serialization-version="v0">
                <StringLiteral content="_nm1d2nPAYFvigHrUNV_H-35" property="https://ontology.security.amazon.dev/foundation/diagram-visualization/a2255956-c3df-4c2c-b489-c307f68abc97" />
                <IRI resource="https://ontology.security.amazon.dev/design-inspector/components/ee44b39a-c4bb-4022-b961-2f48ec193e80" property="https://ontology.security.amazon.dev/foundation/system-modeling/04539597-4283-4f65-8090-ae67f9d3e949" />
                <IRI resource="https://ontology.security.amazon.dev/foundation/graph-structure/0b4eeac8-04e5-4e85-869c-bd56fb947b7b" property="http://www.w3.org/1999/02/22-rdf-syntax-ns#type" />
                <StringLiteral content="S3 bucketfor template files" property="http://www.w3.org/2000/01/rdf-schema#label" />
                <StringLiteral content="UnknownPage" property="https://ontology.security.amazon.dev/foundation/diagram-visualization/05cc531c-d241-49c3-80dc-bd3777c5426f" />
              </SemanticDataContainer>
            </ResourceDescriptor>
          </mxCell>
        </object>
        <object label="&lt;b&gt;11&lt;/b&gt;" stencilType="text" id="_nm1d2nPAYFvigHrUNV_H-37">
          <mxCell style="text;html=1;strokeColor=none;fillColor=none;align=center;verticalAlign=middle;whiteSpace=wrap;rounded=0;" parent="1" vertex="1" rdfUpgraded="1" assetTypeVersion="3">
            <mxGeometry x="630" y="260" width="40" height="20" as="geometry" />
            <ResourceDescriptor resource="_:_nm1d2nPAYFvigHrUNV_H-37" serialization-version="v0" as="resourceDescriptor">
              <SemanticDataContainer serialization-version="v0">
                <IRI resource="https://ontology.security.amazon.dev/design-inspector/components/84a80b5f-5642-4a17-9585-ebfdb65f4bec" property="https://ontology.security.amazon.dev/foundation/system-modeling/04539597-4283-4f65-8090-ae67f9d3e949" />
                <IRI resource="https://ontology.security.amazon.dev/design-inspector/components/4f51991f-f3c6-4a47-9b00-013560ab92f4" property="http://www.w3.org/1999/02/22-rdf-syntax-ns#type" />
                <IRI resource="https://ontology.security.amazon.dev/foundation/graph-structure/0b4eeac8-04e5-4e85-869c-bd56fb947b7b" property="http://www.w3.org/1999/02/22-rdf-syntax-ns#type" />
                <StringLiteral content="UnknownPage" property="https://ontology.security.amazon.dev/foundation/diagram-visualization/05cc531c-d241-49c3-80dc-bd3777c5426f" />
                <StringLiteral content="11" property="http://www.w3.org/2000/01/rdf-schema#label" />
                <StringLiteral content="_nm1d2nPAYFvigHrUNV_H-37" property="https://ontology.security.amazon.dev/foundation/diagram-visualization/a2255956-c3df-4c2c-b489-c307f68abc97" />
              </SemanticDataContainer>
            </ResourceDescriptor>
          </mxCell>
        </object>
        <mxCell id="QD4o6qMrIX3-3gyalX1c-4" value="" style="sketch=0;points=[[0,0,0],[0.25,0,0],[0.5,0,0],[0.75,0,0],[1,0,0],[0,1,0],[0.25,1,0],[0.5,1,0],[0.75,1,0],[1,1,0],[0,0.25,0],[0,0.5,0],[0,0.75,0],[1,0.25,0],[1,0.5,0],[1,0.75,0]];outlineConnect=0;fontColor=#232F3E;gradientColor=#F78E04;gradientDirection=north;fillColor=#D05C17;strokeColor=#ffffff;dashed=0;verticalLabelPosition=bottom;verticalAlign=top;align=center;html=1;fontSize=12;fontStyle=0;aspect=fixed;shape=mxgraph.aws4.resourceIcon;resIcon=mxgraph.aws4.eks;" parent="1" vertex="1">
          <mxGeometry x="267" y="242" width="78" height="78" as="geometry" />
        </mxCell>
        <mxCell id="QD4o6qMrIX3-3gyalX1c-5" value="" style="sketch=0;points=[[0,0,0],[0.25,0,0],[0.5,0,0],[0.75,0,0],[1,0,0],[0,1,0],[0.25,1,0],[0.5,1,0],[0.75,1,0],[1,1,0],[0,0.25,0],[0,0.5,0],[0,0.75,0],[1,0.25,0],[1,0.5,0],[1,0.75,0]];outlineConnect=0;fontColor=#232F3E;gradientColor=#4D72F3;gradientDirection=north;fillColor=#3334B9;strokeColor=#ffffff;dashed=0;verticalLabelPosition=bottom;verticalAlign=top;align=center;html=1;fontSize=12;fontStyle=0;aspect=fixed;shape=mxgraph.aws4.resourceIcon;resIcon=mxgraph.aws4.codecommit;" parent="1" vertex="1">
          <mxGeometry x="267" y="480" width="78" height="78" as="geometry" />
        </mxCell>
        <mxCell id="QD4o6qMrIX3-3gyalX1c-7" value="" style="sketch=0;points=[[0,0,0],[0.25,0,0],[0.5,0,0],[0.75,0,0],[1,0,0],[0,1,0],[0.25,1,0],[0.5,1,0],[0.75,1,0],[1,1,0],[0,0.25,0],[0,0.5,0],[0,0.75,0],[1,0.25,0],[1,0.5,0],[1,0.75,0]];points=[[0,0,0],[0.25,0,0],[0.5,0,0],[0.75,0,0],[1,0,0],[0,1,0],[0.25,1,0],[0.5,1,0],[0.75,1,0],[1,1,0],[0,0.25,0],[0,0.5,0],[0,0.75,0],[1,0.25,0],[1,0.5,0],[1,0.75,0]];outlineConnect=0;fontColor=#232F3E;gradientColor=#F34482;gradientDirection=north;fillColor=#BC1356;strokeColor=#ffffff;dashed=0;verticalLabelPosition=bottom;verticalAlign=top;align=center;html=1;fontSize=12;fontStyle=0;aspect=fixed;shape=mxgraph.aws4.resourceIcon;resIcon=mxgraph.aws4.cloudformation;" parent="1" vertex="1">
          <mxGeometry x="705" y="376" width="78" height="78" as="geometry" />
        </mxCell>
      </root>
    </mxGraphModel>
  </diagram>
  <diagram id="BTnab3MmHQmzCfqtOLRl" name="Update">
    <mxGraphModel dx="2954" dy="1128" grid="1" gridSize="10" guides="1" tooltips="1" connect="1" arrows="1" fold="1" page="1" pageScale="1" pageWidth="850" pageHeight="1400" math="0" shadow="0">
      <root>
        <mxCell id="0" />
        <mxCell id="1" parent="0" />
        <object label="&lt;b&gt;AWS CloudFormation&lt;/b&gt;" stencilType="cloudformation" id="_74IzwcaJhtsTYrPn7xk-1">
          <mxCell style="points=[[0,0,0],[0.25,0,0],[0.5,0,0],[0.75,0,0],[1,0,0],[0,1,0],[0.25,1,0],[0.5,1,0],[0.75,1,0],[1,1,0],[0,0.25,0],[0,0.5,0],[0,0.75,0],[1,0.25,0],[1,0.5,0],[1,0.75,0]];outlineConnect=0;fontColor=#232F3E;gradientColor=#F34482;gradientDirection=north;fillColor=#BC1356;strokeColor=#ffffff;dashed=0;verticalLabelPosition=bottom;verticalAlign=top;align=center;html=1;fontSize=12;fontStyle=0;aspect=fixed;shape=mxgraph.aws20.resourceIcon;resIcon=mxgraph.aws20.cloudformation;" vertex="1" rdfUpgraded="1" assetTypeVersion="3" parent="1">
            <mxGeometry x="705" y="380" width="70" height="70" as="geometry" />
            <ResourceDescriptor resource="_:_0WKEjGSolQWEmS241A_3-1" serialization-version="v0" as="resourceDescriptor">
              <SemanticDataContainer serialization-version="v0">
                <StringLiteral content="_0WKEjGSolQWEmS241A_3-1" property="https://ontology.security.amazon.dev/foundation/diagram-visualization/a2255956-c3df-4c2c-b489-c307f68abc97" />
                <IRI resource="https://ontology.security.amazon.dev/design-inspector/components/84a80b5f-5642-4a17-9585-ebfdb65f4bec" property="https://ontology.security.amazon.dev/foundation/system-modeling/04539597-4283-4f65-8090-ae67f9d3e949" />
                <IRI resource="https://ontology.security.amazon.dev/design-inspector/components/4f51991f-f3c6-4a47-9b00-013560ab92f4" property="http://www.w3.org/1999/02/22-rdf-syntax-ns#type" />
                <IRI resource="https://ontology.security.amazon.dev/foundation/graph-structure/0b4eeac8-04e5-4e85-869c-bd56fb947b7b" property="http://www.w3.org/1999/02/22-rdf-syntax-ns#type" />
                <StringLiteral content="AWS CloudFormation" property="http://www.w3.org/2000/01/rdf-schema#label" />
                <StringLiteral content="SOUpMyilc1v6sO0bcS_Z4" property="https://ontology.security.amazon.dev/foundation/diagram-visualization/05cc531c-d241-49c3-80dc-bd3777c5426f" />
              </SemanticDataContainer>
            </ResourceDescriptor>
          </mxCell>
        </object>
        <object label="&lt;b&gt;Kubernetes API Server&lt;/b&gt;" stencilType="eks" id="_74IzwcaJhtsTYrPn7xk-2">
          <mxCell style="points=[[0,0,0],[0.25,0,0],[0.5,0,0],[0.75,0,0],[1,0,0],[0,1,0],[0.25,1,0],[0.5,1,0],[0.75,1,0],[1,1,0],[0,0.25,0],[0,0.5,0],[0,0.75,0],[1,0.25,0],[1,0.5,0],[1,0.75,0]];outlineConnect=0;fontColor=#232F3E;gradientColor=#F78E04;gradientDirection=north;fillColor=#D05C17;strokeColor=#ffffff;dashed=0;verticalLabelPosition=top;verticalAlign=bottom;align=center;html=1;fontSize=12;fontStyle=0;aspect=fixed;shape=mxgraph.aws20.resourceIcon;resIcon=mxgraph.aws20.eks;labelPosition=center;" vertex="1" rdfUpgraded="1" assetTypeVersion="3" parent="1">
            <mxGeometry x="265" y="240" width="80" height="80" as="geometry" />
            <ResourceDescriptor resource="_:_0WKEjGSolQWEmS241A_3-4" serialization-version="v0" as="resourceDescriptor">
              <SemanticDataContainer serialization-version="v0">
                <StringLiteral content="_0WKEjGSolQWEmS241A_3-4" property="https://ontology.security.amazon.dev/foundation/diagram-visualization/a2255956-c3df-4c2c-b489-c307f68abc97" />
                <IRI resource="https://ontology.security.amazon.dev/design-inspector/components/aaab50ab-4afb-40c3-9a78-a6373ff63d7c" property="https://ontology.security.amazon.dev/foundation/system-modeling/04539597-4283-4f65-8090-ae67f9d3e949" />
                <IRI resource="https://ontology.security.amazon.dev/foundation/graph-structure/0b4eeac8-04e5-4e85-869c-bd56fb947b7b" property="http://www.w3.org/1999/02/22-rdf-syntax-ns#type" />
                <StringLiteral content="Kubernetes API Server" property="http://www.w3.org/2000/01/rdf-schema#label" />
                <StringLiteral content="SOUpMyilc1v6sO0bcS_Z4" property="https://ontology.security.amazon.dev/foundation/diagram-visualization/05cc531c-d241-49c3-80dc-bd3777c5426f" />
              </SemanticDataContainer>
            </ResourceDescriptor>
          </mxCell>
        </object>
        <object label="" stencilType="generic-channel" id="_74IzwcaJhtsTYrPn7xk-3">
          <mxCell style="edgeStyle=orthogonalEdgeStyle;rounded=0;html=1;entryX=1;entryY=0.75;entryDx=0;entryDy=0;entryPerimeter=0;jettySize=auto;orthogonalLoop=1;" edge="1" rdfUpgraded="1" assetTypeVersion="3" parent="1" target="_74IzwcaJhtsTYrPn7xk-2">
            <mxGeometry relative="1" as="geometry">
              <mxPoint x="510" y="500" as="sourcePoint" />
            </mxGeometry>
            <ResourceDescriptor resource="_:_0WKEjGSolQWEmS241A_3-18" serialization-version="v0" as="resourceDescriptor">
              <SemanticDataContainer serialization-version="v0">
                <StringLiteral content="_0WKEjGSolQWEmS241A_3-18" property="https://ontology.security.amazon.dev/foundation/diagram-visualization/a2255956-c3df-4c2c-b489-c307f68abc97" />
                <StringLiteral content="SOUpMyilc1v6sO0bcS_Z4" property="https://ontology.security.amazon.dev/foundation/diagram-visualization/05cc531c-d241-49c3-80dc-bd3777c5426f" />
                <IRI resource="https://ontology.security.amazon.dev/foundation/graph-structure/65157620-74b7-470e-bd9d-b9bf56b6cb4b" property="http://www.w3.org/1999/02/22-rdf-syntax-ns#type" />
                <IRI resource="https://ontology.security.amazon.dev/design-inspector/components/84a80b5f-5642-4a17-9585-ebfdb65f4bec" property="https://ontology.security.amazon.dev/foundation/system-modeling/04539597-4283-4f65-8090-ae67f9d3e949" />
                <BlankNodeID resource="_:_0WKEjGSolQWEmS241A_3-4" property="https://ontology.security.amazon.dev/foundation/graph-structure/617be0ed-cf17-4a01-a75d-81ed3a472532" />
              </SemanticDataContainer>
            </ResourceDescriptor>
          </mxCell>
        </object>
        <object label="" stencilType="generic-channel" id="_74IzwcaJhtsTYrPn7xk-4">
          <mxCell style="edgeStyle=orthogonalEdgeStyle;rounded=0;html=1;jettySize=auto;orthogonalLoop=1;" edge="1" rdfUpgraded="1" assetTypeVersion="3" parent="1" target="_74IzwcaJhtsTYrPn7xk-11">
            <mxGeometry relative="1" as="geometry">
              <mxPoint x="510" y="520" as="sourcePoint" />
            </mxGeometry>
            <ResourceDescriptor resource="_:_0WKEjGSolQWEmS241A_3-23" serialization-version="v0" as="resourceDescriptor">
              <SemanticDataContainer serialization-version="v0">
                <StringLiteral content="_0WKEjGSolQWEmS241A_3-23" property="https://ontology.security.amazon.dev/foundation/diagram-visualization/a2255956-c3df-4c2c-b489-c307f68abc97" />
                <StringLiteral content="SOUpMyilc1v6sO0bcS_Z4" property="https://ontology.security.amazon.dev/foundation/diagram-visualization/05cc531c-d241-49c3-80dc-bd3777c5426f" />
                <IRI resource="https://ontology.security.amazon.dev/foundation/graph-structure/65157620-74b7-470e-bd9d-b9bf56b6cb4b" property="http://www.w3.org/1999/02/22-rdf-syntax-ns#type" />
                <IRI resource="https://ontology.security.amazon.dev/design-inspector/components/84a80b5f-5642-4a17-9585-ebfdb65f4bec" property="https://ontology.security.amazon.dev/foundation/system-modeling/04539597-4283-4f65-8090-ae67f9d3e949" />
                <BlankNodeID resource="_:_0WKEjGSolQWEmS241A_3-11" property="https://ontology.security.amazon.dev/foundation/graph-structure/617be0ed-cf17-4a01-a75d-81ed3a472532" />
              </SemanticDataContainer>
            </ResourceDescriptor>
          </mxCell>
        </object>
        <object label="&lt;b&gt;Flux Source Controller&lt;/b&gt;" stencilType="container" id="_74IzwcaJhtsTYrPn7xk-5">
          <mxCell style="sketch=0;outlineConnect=0;fontColor=#232F3E;gradientColor=none;fillColor=#D05C17;strokeColor=none;dashed=0;verticalLabelPosition=bottom;verticalAlign=top;align=center;html=1;fontSize=12;fontStyle=0;aspect=fixed;pointerEvents=1;shape=mxgraph.aws4.container_1;fontFamily=Helvetica;" vertex="1" rdfUpgraded="1" assetTypeVersion="3" parent="1">
            <mxGeometry x="515" y="470" width="80" height="80" as="geometry" />
            <ResourceDescriptor resource="_:_0WKEjGSolQWEmS241A_3-5" serialization-version="v0" as="resourceDescriptor">
              <SemanticDataContainer serialization-version="v0">
                <StringLiteral content="_0WKEjGSolQWEmS241A_3-5" property="https://ontology.security.amazon.dev/foundation/diagram-visualization/a2255956-c3df-4c2c-b489-c307f68abc97" />
                <IRI resource="https://ontology.security.amazon.dev/design-inspector/components/84a80b5f-5642-4a17-9585-ebfdb65f4bec" property="https://ontology.security.amazon.dev/foundation/system-modeling/04539597-4283-4f65-8090-ae67f9d3e949" />
                <IRI resource="https://ontology.security.amazon.dev/design-inspector/components/4f51991f-f3c6-4a47-9b00-013560ab92f4" property="http://www.w3.org/1999/02/22-rdf-syntax-ns#type" />
                <IRI resource="https://ontology.security.amazon.dev/foundation/graph-structure/0b4eeac8-04e5-4e85-869c-bd56fb947b7b" property="http://www.w3.org/1999/02/22-rdf-syntax-ns#type" />
                <StringLiteral content="Flux Source Controller" property="http://www.w3.org/2000/01/rdf-schema#label" />
                <StringLiteral content="SOUpMyilc1v6sO0bcS_Z4" property="https://ontology.security.amazon.dev/foundation/diagram-visualization/05cc531c-d241-49c3-80dc-bd3777c5426f" />
              </SemanticDataContainer>
            </ResourceDescriptor>
          </mxCell>
        </object>
        <object label="" stencilType="generic-channel" id="_74IzwcaJhtsTYrPn7xk-6">
          <mxCell style="edgeStyle=orthogonalEdgeStyle;rounded=0;html=1;entryX=1;entryY=0.5;entryDx=0;entryDy=0;entryPerimeter=0;jettySize=auto;orthogonalLoop=1;" edge="1" rdfUpgraded="1" assetTypeVersion="3" parent="1" source="_74IzwcaJhtsTYrPn7xk-10" target="_74IzwcaJhtsTYrPn7xk-2">
            <mxGeometry relative="1" as="geometry" />
            <ResourceDescriptor resource="_:_0WKEjGSolQWEmS241A_3-19" serialization-version="v0" as="resourceDescriptor">
              <SemanticDataContainer serialization-version="v0">
                <StringLiteral content="_0WKEjGSolQWEmS241A_3-19" property="https://ontology.security.amazon.dev/foundation/diagram-visualization/a2255956-c3df-4c2c-b489-c307f68abc97" />
                <IRI resource="https://ontology.security.amazon.dev/design-inspector/components/84a80b5f-5642-4a17-9585-ebfdb65f4bec" property="https://ontology.security.amazon.dev/foundation/system-modeling/04539597-4283-4f65-8090-ae67f9d3e949" />
                <StringLiteral content="SOUpMyilc1v6sO0bcS_Z4" property="https://ontology.security.amazon.dev/foundation/diagram-visualization/05cc531c-d241-49c3-80dc-bd3777c5426f" />
                <IRI resource="https://ontology.security.amazon.dev/foundation/graph-structure/65157620-74b7-470e-bd9d-b9bf56b6cb4b" property="http://www.w3.org/1999/02/22-rdf-syntax-ns#type" />
                <BlankNodeID resource="_:_0WKEjGSolQWEmS241A_3-8" property="https://ontology.security.amazon.dev/foundation/graph-structure/d1fc066e-3862-4ae0-8304-6cef42f40a50" />
                <BlankNodeID resource="_:_0WKEjGSolQWEmS241A_3-4" property="https://ontology.security.amazon.dev/foundation/graph-structure/617be0ed-cf17-4a01-a75d-81ed3a472532" />
              </SemanticDataContainer>
            </ResourceDescriptor>
          </mxCell>
        </object>
        <object label="" stencilType="generic-channel" id="_74IzwcaJhtsTYrPn7xk-7">
          <mxCell style="edgeStyle=orthogonalEdgeStyle;rounded=0;html=1;entryX=0;entryY=0.5;entryDx=0;entryDy=0;entryPerimeter=0;jettySize=auto;orthogonalLoop=1;" edge="1" rdfUpgraded="1" assetTypeVersion="3" parent="1" target="_74IzwcaJhtsTYrPn7xk-1">
            <mxGeometry relative="1" as="geometry">
              <mxPoint x="600" y="290" as="sourcePoint" />
            </mxGeometry>
            <ResourceDescriptor resource="_:_0WKEjGSolQWEmS241A_3-21" serialization-version="v0" as="resourceDescriptor">
              <SemanticDataContainer serialization-version="v0">
                <StringLiteral content="_0WKEjGSolQWEmS241A_3-21" property="https://ontology.security.amazon.dev/foundation/diagram-visualization/a2255956-c3df-4c2c-b489-c307f68abc97" />
                <StringLiteral content="SOUpMyilc1v6sO0bcS_Z4" property="https://ontology.security.amazon.dev/foundation/diagram-visualization/05cc531c-d241-49c3-80dc-bd3777c5426f" />
                <IRI resource="https://ontology.security.amazon.dev/design-inspector/components/84a80b5f-5642-4a17-9585-ebfdb65f4bec" property="https://ontology.security.amazon.dev/foundation/system-modeling/04539597-4283-4f65-8090-ae67f9d3e949" />
                <IRI resource="https://ontology.security.amazon.dev/foundation/graph-structure/65157620-74b7-470e-bd9d-b9bf56b6cb4b" property="http://www.w3.org/1999/02/22-rdf-syntax-ns#type" />
                <BlankNodeID resource="_:_0WKEjGSolQWEmS241A_3-1" property="https://ontology.security.amazon.dev/foundation/graph-structure/617be0ed-cf17-4a01-a75d-81ed3a472532" />
              </SemanticDataContainer>
            </ResourceDescriptor>
          </mxCell>
        </object>
        <object label="" stencilType="generic-channel" id="_74IzwcaJhtsTYrPn7xk-8">
          <mxCell style="edgeStyle=orthogonalEdgeStyle;rounded=0;html=1;jettySize=auto;orthogonalLoop=1;" edge="1" rdfUpgraded="1" assetTypeVersion="3" parent="1" source="_74IzwcaJhtsTYrPn7xk-10" target="_74IzwcaJhtsTYrPn7xk-5">
            <mxGeometry relative="1" as="geometry" />
            <ResourceDescriptor resource="_:_0WKEjGSolQWEmS241A_3-22" serialization-version="v0" as="resourceDescriptor">
              <SemanticDataContainer serialization-version="v0">
                <StringLiteral content="_0WKEjGSolQWEmS241A_3-22" property="https://ontology.security.amazon.dev/foundation/diagram-visualization/a2255956-c3df-4c2c-b489-c307f68abc97" />
                <IRI resource="https://ontology.security.amazon.dev/design-inspector/components/84a80b5f-5642-4a17-9585-ebfdb65f4bec" property="https://ontology.security.amazon.dev/foundation/system-modeling/04539597-4283-4f65-8090-ae67f9d3e949" />
                <StringLiteral content="SOUpMyilc1v6sO0bcS_Z4" property="https://ontology.security.amazon.dev/foundation/diagram-visualization/05cc531c-d241-49c3-80dc-bd3777c5426f" />
                <IRI resource="https://ontology.security.amazon.dev/foundation/graph-structure/65157620-74b7-470e-bd9d-b9bf56b6cb4b" property="http://www.w3.org/1999/02/22-rdf-syntax-ns#type" />
                <BlankNodeID resource="_:_0WKEjGSolQWEmS241A_3-8" property="https://ontology.security.amazon.dev/foundation/graph-structure/d1fc066e-3862-4ae0-8304-6cef42f40a50" />
                <BlankNodeID resource="_:_0WKEjGSolQWEmS241A_3-5" property="https://ontology.security.amazon.dev/foundation/graph-structure/617be0ed-cf17-4a01-a75d-81ed3a472532" />
              </SemanticDataContainer>
            </ResourceDescriptor>
          </mxCell>
        </object>
        <object label="" stencilType="generic-channel" id="_74IzwcaJhtsTYrPn7xk-9">
          <mxCell style="edgeStyle=orthogonalEdgeStyle;rounded=0;html=1;jettySize=auto;orthogonalLoop=1;" edge="1" rdfUpgraded="1" assetTypeVersion="3" parent="1" source="_74IzwcaJhtsTYrPn7xk-10" target="_74IzwcaJhtsTYrPn7xk-20">
            <mxGeometry relative="1" as="geometry" />
            <ResourceDescriptor resource="_:_nm1d2nPAYFvigHrUNV_H-36" serialization-version="v0" as="resourceDescriptor">
              <SemanticDataContainer serialization-version="v0">
                <StringLiteral content="_nm1d2nPAYFvigHrUNV_H-36" property="https://ontology.security.amazon.dev/foundation/diagram-visualization/a2255956-c3df-4c2c-b489-c307f68abc97" />
                <BlankNodeID resource="_:_0WKEjGSolQWEmS241A_3-8" property="https://ontology.security.amazon.dev/foundation/graph-structure/d1fc066e-3862-4ae0-8304-6cef42f40a50" />
                <BlankNodeID resource="_:_nm1d2nPAYFvigHrUNV_H-35" property="https://ontology.security.amazon.dev/foundation/graph-structure/617be0ed-cf17-4a01-a75d-81ed3a472532" />
                <IRI resource="https://ontology.security.amazon.dev/foundation/graph-structure/65157620-74b7-470e-bd9d-b9bf56b6cb4b" property="http://www.w3.org/1999/02/22-rdf-syntax-ns#type" />
                <IRI resource="https://ontology.security.amazon.dev/design-inspector/components/84a80b5f-5642-4a17-9585-ebfdb65f4bec" property="https://ontology.security.amazon.dev/foundation/system-modeling/04539597-4283-4f65-8090-ae67f9d3e949" />
                <StringLiteral content="SOUpMyilc1v6sO0bcS_Z4" property="https://ontology.security.amazon.dev/foundation/diagram-visualization/05cc531c-d241-49c3-80dc-bd3777c5426f" />
              </SemanticDataContainer>
            </ResourceDescriptor>
          </mxCell>
        </object>
        <object label="&lt;b&gt;Flux CFN Controller&lt;br&gt;&lt;/b&gt;" stencilType="container" id="_74IzwcaJhtsTYrPn7xk-10">
          <mxCell style="sketch=0;outlineConnect=0;fontColor=#232F3E;gradientColor=none;fillColor=#D05C17;strokeColor=none;dashed=0;verticalLabelPosition=top;verticalAlign=bottom;align=center;html=1;fontSize=12;fontStyle=0;aspect=fixed;pointerEvents=1;shape=mxgraph.aws4.container_1;fontFamily=Helvetica;labelPosition=center;" vertex="1" rdfUpgraded="1" assetTypeVersion="3" parent="1">
            <mxGeometry x="515" y="240" width="80" height="80" as="geometry" />
            <ResourceDescriptor resource="_:_0WKEjGSolQWEmS241A_3-8" serialization-version="v0" as="resourceDescriptor">
              <SemanticDataContainer serialization-version="v0">
                <IRI resource="https://ontology.security.amazon.dev/design-inspector/components/4f51991f-f3c6-4a47-9b00-013560ab92f4" property="http://www.w3.org/1999/02/22-rdf-syntax-ns#type" />
                <IRI resource="https://ontology.security.amazon.dev/foundation/graph-structure/0b4eeac8-04e5-4e85-869c-bd56fb947b7b" property="http://www.w3.org/1999/02/22-rdf-syntax-ns#type" />
                <IRI resource="https://ontology.security.amazon.dev/design-inspector/components/84a80b5f-5642-4a17-9585-ebfdb65f4bec" property="https://ontology.security.amazon.dev/foundation/system-modeling/04539597-4283-4f65-8090-ae67f9d3e949" />
                <StringLiteral content="SOUpMyilc1v6sO0bcS_Z4" property="https://ontology.security.amazon.dev/foundation/diagram-visualization/05cc531c-d241-49c3-80dc-bd3777c5426f" />
                <StringLiteral content="Flux CFN Controller" property="http://www.w3.org/2000/01/rdf-schema#label" />
                <StringLiteral content="_0WKEjGSolQWEmS241A_3-8" property="https://ontology.security.amazon.dev/foundation/diagram-visualization/a2255956-c3df-4c2c-b489-c307f68abc97" />
              </SemanticDataContainer>
            </ResourceDescriptor>
          </mxCell>
        </object>
        <object label="&lt;b&gt;Git Repository&lt;br&gt;&lt;/b&gt;" stencilType="codecommit" id="_74IzwcaJhtsTYrPn7xk-11">
          <mxCell style="points=[[0,0,0],[0.25,0,0],[0.5,0,0],[0.75,0,0],[1,0,0],[0,1,0],[0.25,1,0],[0.5,1,0],[0.75,1,0],[1,1,0],[0,0.25,0],[0,0.5,0],[0,0.75,0],[1,0.25,0],[1,0.5,0],[1,0.75,0]];outlineConnect=0;fontColor=#232F3E;gradientColor=#4D72F3;gradientDirection=north;fillColor=#3334B9;strokeColor=#ffffff;dashed=0;verticalLabelPosition=bottom;verticalAlign=top;align=center;html=1;fontSize=12;fontStyle=0;aspect=fixed;shape=mxgraph.aws20.resourceIcon;resIcon=mxgraph.aws20.codecommit;" vertex="1" rdfUpgraded="1" assetTypeVersion="3" parent="1">
            <mxGeometry x="265" y="480" width="80" height="80" as="geometry" />
            <ResourceDescriptor resource="_:_0WKEjGSolQWEmS241A_3-11" serialization-version="v0" as="resourceDescriptor">
              <SemanticDataContainer serialization-version="v0">
                <StringLiteral content="_0WKEjGSolQWEmS241A_3-11" property="https://ontology.security.amazon.dev/foundation/diagram-visualization/a2255956-c3df-4c2c-b489-c307f68abc97" />
                <IRI resource="https://ontology.security.amazon.dev/design-inspector/components/84a80b5f-5642-4a17-9585-ebfdb65f4bec" property="https://ontology.security.amazon.dev/foundation/system-modeling/04539597-4283-4f65-8090-ae67f9d3e949" />
                <IRI resource="https://ontology.security.amazon.dev/design-inspector/components/4f51991f-f3c6-4a47-9b00-013560ab92f4" property="http://www.w3.org/1999/02/22-rdf-syntax-ns#type" />
                <IRI resource="https://ontology.security.amazon.dev/foundation/graph-structure/0b4eeac8-04e5-4e85-869c-bd56fb947b7b" property="http://www.w3.org/1999/02/22-rdf-syntax-ns#type" />
                <StringLiteral content="Git Repository" property="http://www.w3.org/2000/01/rdf-schema#label" />
                <StringLiteral content="SOUpMyilc1v6sO0bcS_Z4" property="https://ontology.security.amazon.dev/foundation/diagram-visualization/05cc531c-d241-49c3-80dc-bd3777c5426f" />
              </SemanticDataContainer>
            </ResourceDescriptor>
          </mxCell>
        </object>
        <object label="" stencilType="generic-channel" id="_74IzwcaJhtsTYrPn7xk-12">
          <mxCell style="edgeStyle=orthogonalEdgeStyle;rounded=0;html=1;entryX=0;entryY=0.5;entryDx=0;entryDy=0;entryPerimeter=0;jettySize=auto;orthogonalLoop=1;" edge="1" rdfUpgraded="1" assetTypeVersion="3" parent="1" target="_74IzwcaJhtsTYrPn7xk-11">
            <mxGeometry relative="1" as="geometry">
              <mxPoint x="110" y="400" as="sourcePoint" />
            </mxGeometry>
            <ResourceDescriptor resource="_:_0WKEjGSolQWEmS241A_3-15" serialization-version="v0" as="resourceDescriptor">
              <SemanticDataContainer serialization-version="v0">
                <StringLiteral content="_0WKEjGSolQWEmS241A_3-15" property="https://ontology.security.amazon.dev/foundation/diagram-visualization/a2255956-c3df-4c2c-b489-c307f68abc97" />
                <StringLiteral content="SOUpMyilc1v6sO0bcS_Z4" property="https://ontology.security.amazon.dev/foundation/diagram-visualization/05cc531c-d241-49c3-80dc-bd3777c5426f" />
                <IRI resource="https://ontology.security.amazon.dev/foundation/graph-structure/65157620-74b7-470e-bd9d-b9bf56b6cb4b" property="http://www.w3.org/1999/02/22-rdf-syntax-ns#type" />
                <IRI resource="https://ontology.security.amazon.dev/design-inspector/components/84a80b5f-5642-4a17-9585-ebfdb65f4bec" property="https://ontology.security.amazon.dev/foundation/system-modeling/04539597-4283-4f65-8090-ae67f9d3e949" />
                <BlankNodeID resource="_:_0WKEjGSolQWEmS241A_3-11" property="https://ontology.security.amazon.dev/foundation/graph-structure/617be0ed-cf17-4a01-a75d-81ed3a472532" />
              </SemanticDataContainer>
            </ResourceDescriptor>
          </mxCell>
        </object>
        <object label="&lt;div&gt;&lt;b&gt;User&lt;/b&gt;&lt;/div&gt;" stencilType="actor" id="_74IzwcaJhtsTYrPn7xk-13">
          <mxCell style="shape=umlActor;verticalLabelPosition=bottom;labelBackgroundColor=#ffffff;verticalAlign=top;html=1;outlineConnect=0;" vertex="1" rdfUpgraded="1" assetTypeVersion="3" parent="1">
            <mxGeometry x="50" y="340" width="50" height="100" as="geometry" />
            <ResourceDescriptor resource="_:_0WKEjGSolQWEmS241A_3-12" serialization-version="v0" as="resourceDescriptor">
              <SemanticDataContainer serialization-version="v0">
                <StringLiteral content="_0WKEjGSolQWEmS241A_3-12" property="https://ontology.security.amazon.dev/foundation/diagram-visualization/a2255956-c3df-4c2c-b489-c307f68abc97" />
                <IRI resource="https://ontology.security.amazon.dev/foundation/system-modeling/a8c50ddd-aa98-48ce-a1ac-5a95ff514e73" property="https://ontology.security.amazon.dev/foundation/system-modeling/04539597-4283-4f65-8090-ae67f9d3e949" />
                <IRI resource="https://ontology.security.amazon.dev/foundation/graph-structure/0b4eeac8-04e5-4e85-869c-bd56fb947b7b" property="http://www.w3.org/1999/02/22-rdf-syntax-ns#type" />
                <StringLiteral content="User" property="http://www.w3.org/2000/01/rdf-schema#label" />
                <StringLiteral content="SOUpMyilc1v6sO0bcS_Z4" property="https://ontology.security.amazon.dev/foundation/diagram-visualization/05cc531c-d241-49c3-80dc-bd3777c5426f" />
              </SemanticDataContainer>
            </ResourceDescriptor>
          </mxCell>
        </object>
        <object label="&lt;b&gt;1&lt;/b&gt;" stencilType="text" id="_74IzwcaJhtsTYrPn7xk-14">
          <mxCell style="text;html=1;strokeColor=none;fillColor=none;align=right;verticalAlign=middle;whiteSpace=wrap;rounded=0;" vertex="1" rdfUpgraded="1" assetTypeVersion="3" parent="1">
            <mxGeometry x="140" y="450" width="40" height="20" as="geometry" />
            <ResourceDescriptor resource="_:_0WKEjGSolQWEmS241A_3-16" serialization-version="v0" as="resourceDescriptor">
              <SemanticDataContainer serialization-version="v0">
                <StringLiteral content="_0WKEjGSolQWEmS241A_3-16" property="https://ontology.security.amazon.dev/foundation/diagram-visualization/a2255956-c3df-4c2c-b489-c307f68abc97" />
                <IRI resource="https://ontology.security.amazon.dev/design-inspector/components/4f51991f-f3c6-4a47-9b00-013560ab92f4" property="http://www.w3.org/1999/02/22-rdf-syntax-ns#type" />
                <IRI resource="https://ontology.security.amazon.dev/foundation/graph-structure/0b4eeac8-04e5-4e85-869c-bd56fb947b7b" property="http://www.w3.org/1999/02/22-rdf-syntax-ns#type" />
                <IRI resource="https://ontology.security.amazon.dev/design-inspector/components/84a80b5f-5642-4a17-9585-ebfdb65f4bec" property="https://ontology.security.amazon.dev/foundation/system-modeling/04539597-4283-4f65-8090-ae67f9d3e949" />
                <StringLiteral content="1" property="http://www.w3.org/2000/01/rdf-schema#label" />
                <StringLiteral content="SOUpMyilc1v6sO0bcS_Z4" property="https://ontology.security.amazon.dev/foundation/diagram-visualization/05cc531c-d241-49c3-80dc-bd3777c5426f" />
              </SemanticDataContainer>
            </ResourceDescriptor>
          </mxCell>
        </object>
        <object label="&lt;b&gt;3&lt;/b&gt;" stencilType="text" id="_74IzwcaJhtsTYrPn7xk-15">
          <mxCell style="text;html=1;strokeColor=none;fillColor=none;align=left;verticalAlign=middle;whiteSpace=wrap;rounded=0;" vertex="1" rdfUpgraded="1" assetTypeVersion="3" parent="1">
            <mxGeometry x="440" y="400" width="40" height="20" as="geometry" />
            <ResourceDescriptor resource="_:_0WKEjGSolQWEmS241A_3-24" serialization-version="v0" as="resourceDescriptor">
              <SemanticDataContainer serialization-version="v0">
                <IRI resource="https://ontology.security.amazon.dev/design-inspector/components/84a80b5f-5642-4a17-9585-ebfdb65f4bec" property="https://ontology.security.amazon.dev/foundation/system-modeling/04539597-4283-4f65-8090-ae67f9d3e949" />
                <IRI resource="https://ontology.security.amazon.dev/design-inspector/components/4f51991f-f3c6-4a47-9b00-013560ab92f4" property="http://www.w3.org/1999/02/22-rdf-syntax-ns#type" />
                <IRI resource="https://ontology.security.amazon.dev/foundation/graph-structure/0b4eeac8-04e5-4e85-869c-bd56fb947b7b" property="http://www.w3.org/1999/02/22-rdf-syntax-ns#type" />
                <StringLiteral content="SOUpMyilc1v6sO0bcS_Z4" property="https://ontology.security.amazon.dev/foundation/diagram-visualization/05cc531c-d241-49c3-80dc-bd3777c5426f" />
                <StringLiteral content="3" property="http://www.w3.org/2000/01/rdf-schema#label" />
                <StringLiteral content="_0WKEjGSolQWEmS241A_3-24" property="https://ontology.security.amazon.dev/foundation/diagram-visualization/a2255956-c3df-4c2c-b489-c307f68abc97" />
              </SemanticDataContainer>
            </ResourceDescriptor>
          </mxCell>
        </object>
        <object label="&lt;b&gt;2&lt;/b&gt;" stencilType="text" id="_74IzwcaJhtsTYrPn7xk-16">
          <mxCell style="text;html=1;strokeColor=none;fillColor=none;align=center;verticalAlign=middle;whiteSpace=wrap;rounded=0;" vertex="1" rdfUpgraded="1" assetTypeVersion="3" parent="1">
            <mxGeometry x="405" y="523" width="40" height="20" as="geometry" />
            <ResourceDescriptor resource="_:_0WKEjGSolQWEmS241A_3-25" serialization-version="v0" as="resourceDescriptor">
              <SemanticDataContainer serialization-version="v0">
                <IRI resource="https://ontology.security.amazon.dev/design-inspector/components/84a80b5f-5642-4a17-9585-ebfdb65f4bec" property="https://ontology.security.amazon.dev/foundation/system-modeling/04539597-4283-4f65-8090-ae67f9d3e949" />
                <IRI resource="https://ontology.security.amazon.dev/design-inspector/components/4f51991f-f3c6-4a47-9b00-013560ab92f4" property="http://www.w3.org/1999/02/22-rdf-syntax-ns#type" />
                <IRI resource="https://ontology.security.amazon.dev/foundation/graph-structure/0b4eeac8-04e5-4e85-869c-bd56fb947b7b" property="http://www.w3.org/1999/02/22-rdf-syntax-ns#type" />
                <StringLiteral content="SOUpMyilc1v6sO0bcS_Z4" property="https://ontology.security.amazon.dev/foundation/diagram-visualization/05cc531c-d241-49c3-80dc-bd3777c5426f" />
                <StringLiteral content="2" property="http://www.w3.org/2000/01/rdf-schema#label" />
                <StringLiteral content="_0WKEjGSolQWEmS241A_3-25" property="https://ontology.security.amazon.dev/foundation/diagram-visualization/a2255956-c3df-4c2c-b489-c307f68abc97" />
              </SemanticDataContainer>
            </ResourceDescriptor>
          </mxCell>
        </object>
        <object label="&lt;b&gt;4, 5, 9&lt;br&gt;&lt;/b&gt;" stencilType="text" id="_74IzwcaJhtsTYrPn7xk-17">
          <mxCell style="text;html=1;strokeColor=none;fillColor=none;align=center;verticalAlign=middle;whiteSpace=wrap;rounded=0;" vertex="1" rdfUpgraded="1" assetTypeVersion="3" parent="1">
            <mxGeometry x="400" y="257" width="60" height="20" as="geometry" />
            <ResourceDescriptor resource="_:_0WKEjGSolQWEmS241A_3-30" serialization-version="v0" as="resourceDescriptor">
              <SemanticDataContainer serialization-version="v0">
                <IRI resource="https://ontology.security.amazon.dev/design-inspector/components/84a80b5f-5642-4a17-9585-ebfdb65f4bec" property="https://ontology.security.amazon.dev/foundation/system-modeling/04539597-4283-4f65-8090-ae67f9d3e949" />
                <IRI resource="https://ontology.security.amazon.dev/design-inspector/components/4f51991f-f3c6-4a47-9b00-013560ab92f4" property="http://www.w3.org/1999/02/22-rdf-syntax-ns#type" />
                <IRI resource="https://ontology.security.amazon.dev/foundation/graph-structure/0b4eeac8-04e5-4e85-869c-bd56fb947b7b" property="http://www.w3.org/1999/02/22-rdf-syntax-ns#type" />
                <StringLiteral content="SOUpMyilc1v6sO0bcS_Z4" property="https://ontology.security.amazon.dev/foundation/diagram-visualization/05cc531c-d241-49c3-80dc-bd3777c5426f" />
                <StringLiteral content="4, 5, 9" property="http://www.w3.org/2000/01/rdf-schema#label" />
                <StringLiteral content="_0WKEjGSolQWEmS241A_3-30" property="https://ontology.security.amazon.dev/foundation/diagram-visualization/a2255956-c3df-4c2c-b489-c307f68abc97" />
              </SemanticDataContainer>
            </ResourceDescriptor>
          </mxCell>
        </object>
        <object label="&lt;b&gt;6&lt;/b&gt;" stencilType="text" id="_74IzwcaJhtsTYrPn7xk-18">
          <mxCell style="text;html=1;strokeColor=none;fillColor=none;align=left;verticalAlign=middle;whiteSpace=wrap;rounded=0;" vertex="1" rdfUpgraded="1" assetTypeVersion="3" parent="1">
            <mxGeometry x="563" y="380" width="40" height="20" as="geometry" />
            <ResourceDescriptor resource="_:_0WKEjGSolQWEmS241A_3-31" serialization-version="v0" as="resourceDescriptor">
              <SemanticDataContainer serialization-version="v0">
                <IRI resource="https://ontology.security.amazon.dev/design-inspector/components/84a80b5f-5642-4a17-9585-ebfdb65f4bec" property="https://ontology.security.amazon.dev/foundation/system-modeling/04539597-4283-4f65-8090-ae67f9d3e949" />
                <IRI resource="https://ontology.security.amazon.dev/design-inspector/components/4f51991f-f3c6-4a47-9b00-013560ab92f4" property="http://www.w3.org/1999/02/22-rdf-syntax-ns#type" />
                <IRI resource="https://ontology.security.amazon.dev/foundation/graph-structure/0b4eeac8-04e5-4e85-869c-bd56fb947b7b" property="http://www.w3.org/1999/02/22-rdf-syntax-ns#type" />
                <StringLiteral content="SOUpMyilc1v6sO0bcS_Z4" property="https://ontology.security.amazon.dev/foundation/diagram-visualization/05cc531c-d241-49c3-80dc-bd3777c5426f" />
                <StringLiteral content="6" property="http://www.w3.org/2000/01/rdf-schema#label" />
                <StringLiteral content="_0WKEjGSolQWEmS241A_3-31" property="https://ontology.security.amazon.dev/foundation/diagram-visualization/a2255956-c3df-4c2c-b489-c307f68abc97" />
              </SemanticDataContainer>
            </ResourceDescriptor>
          </mxCell>
        </object>
        <object label="&lt;b&gt;8&lt;/b&gt;" stencilType="text" id="_74IzwcaJhtsTYrPn7xk-19">
          <mxCell style="text;html=1;strokeColor=none;fillColor=none;align=left;verticalAlign=middle;whiteSpace=wrap;rounded=0;" vertex="1" rdfUpgraded="1" assetTypeVersion="3" parent="1">
            <mxGeometry x="662" y="330" width="40" height="20" as="geometry" />
            <ResourceDescriptor resource="_:_0WKEjGSolQWEmS241A_3-33" serialization-version="v0" as="resourceDescriptor">
              <SemanticDataContainer serialization-version="v0">
                <IRI resource="https://ontology.security.amazon.dev/design-inspector/components/84a80b5f-5642-4a17-9585-ebfdb65f4bec" property="https://ontology.security.amazon.dev/foundation/system-modeling/04539597-4283-4f65-8090-ae67f9d3e949" />
                <IRI resource="https://ontology.security.amazon.dev/design-inspector/components/4f51991f-f3c6-4a47-9b00-013560ab92f4" property="http://www.w3.org/1999/02/22-rdf-syntax-ns#type" />
                <IRI resource="https://ontology.security.amazon.dev/foundation/graph-structure/0b4eeac8-04e5-4e85-869c-bd56fb947b7b" property="http://www.w3.org/1999/02/22-rdf-syntax-ns#type" />
                <StringLiteral content="SOUpMyilc1v6sO0bcS_Z4" property="https://ontology.security.amazon.dev/foundation/diagram-visualization/05cc531c-d241-49c3-80dc-bd3777c5426f" />
                <StringLiteral content="8" property="http://www.w3.org/2000/01/rdf-schema#label" />
                <StringLiteral content="_0WKEjGSolQWEmS241A_3-33" property="https://ontology.security.amazon.dev/foundation/diagram-visualization/a2255956-c3df-4c2c-b489-c307f68abc97" />
              </SemanticDataContainer>
            </ResourceDescriptor>
          </mxCell>
        </object>
        <object label="&lt;div&gt;&lt;b&gt;S3 bucket&lt;/b&gt;&lt;/div&gt;&lt;div&gt;&lt;b&gt;for template files&lt;br&gt;&lt;/b&gt;&lt;/div&gt;" stencilType="bucket" id="_74IzwcaJhtsTYrPn7xk-20">
          <mxCell style="sketch=0;outlineConnect=0;fontColor=#232F3E;gradientColor=none;fillColor=#277116;strokeColor=none;dashed=0;verticalLabelPosition=top;verticalAlign=bottom;align=center;html=1;fontSize=12;fontStyle=0;aspect=fixed;pointerEvents=1;shape=mxgraph.aws4.bucket;fontFamily=Helvetica;labelPosition=center;" vertex="1" rdfUpgraded="1" assetTypeVersion="3" parent="1">
            <mxGeometry x="710" y="250" width="60" height="60" as="geometry" />
            <ResourceDescriptor resource="_:_nm1d2nPAYFvigHrUNV_H-35" serialization-version="v0" as="resourceDescriptor">
              <SemanticDataContainer serialization-version="v0">
                <StringLiteral content="_nm1d2nPAYFvigHrUNV_H-35" property="https://ontology.security.amazon.dev/foundation/diagram-visualization/a2255956-c3df-4c2c-b489-c307f68abc97" />
                <IRI resource="https://ontology.security.amazon.dev/design-inspector/components/ee44b39a-c4bb-4022-b961-2f48ec193e80" property="https://ontology.security.amazon.dev/foundation/system-modeling/04539597-4283-4f65-8090-ae67f9d3e949" />
                <IRI resource="https://ontology.security.amazon.dev/foundation/graph-structure/0b4eeac8-04e5-4e85-869c-bd56fb947b7b" property="http://www.w3.org/1999/02/22-rdf-syntax-ns#type" />
                <StringLiteral content="S3 bucketfor template files" property="http://www.w3.org/2000/01/rdf-schema#label" />
                <StringLiteral content="SOUpMyilc1v6sO0bcS_Z4" property="https://ontology.security.amazon.dev/foundation/diagram-visualization/05cc531c-d241-49c3-80dc-bd3777c5426f" />
              </SemanticDataContainer>
            </ResourceDescriptor>
          </mxCell>
        </object>
        <object label="&lt;b&gt;7&lt;/b&gt;" stencilType="text" id="_74IzwcaJhtsTYrPn7xk-21">
          <mxCell style="text;html=1;strokeColor=none;fillColor=none;align=center;verticalAlign=middle;whiteSpace=wrap;rounded=0;" vertex="1" rdfUpgraded="1" assetTypeVersion="3" parent="1">
            <mxGeometry x="630" y="260" width="40" height="20" as="geometry" />
            <ResourceDescriptor resource="_:_nm1d2nPAYFvigHrUNV_H-37" serialization-version="v0" as="resourceDescriptor">
              <SemanticDataContainer serialization-version="v0">
                <IRI resource="https://ontology.security.amazon.dev/design-inspector/components/84a80b5f-5642-4a17-9585-ebfdb65f4bec" property="https://ontology.security.amazon.dev/foundation/system-modeling/04539597-4283-4f65-8090-ae67f9d3e949" />
                <IRI resource="https://ontology.security.amazon.dev/design-inspector/components/4f51991f-f3c6-4a47-9b00-013560ab92f4" property="http://www.w3.org/1999/02/22-rdf-syntax-ns#type" />
                <IRI resource="https://ontology.security.amazon.dev/foundation/graph-structure/0b4eeac8-04e5-4e85-869c-bd56fb947b7b" property="http://www.w3.org/1999/02/22-rdf-syntax-ns#type" />
                <StringLiteral content="SOUpMyilc1v6sO0bcS_Z4" property="https://ontology.security.amazon.dev/foundation/diagram-visualization/05cc531c-d241-49c3-80dc-bd3777c5426f" />
                <StringLiteral content="7" property="http://www.w3.org/2000/01/rdf-schema#label" />
                <StringLiteral content="_nm1d2nPAYFvigHrUNV_H-37" property="https://ontology.security.amazon.dev/foundation/diagram-visualization/a2255956-c3df-4c2c-b489-c307f68abc97" />
              </SemanticDataContainer>
            </ResourceDescriptor>
          </mxCell>
        </object>
        <mxCell id="_74IzwcaJhtsTYrPn7xk-22" value="" style="sketch=0;points=[[0,0,0],[0.25,0,0],[0.5,0,0],[0.75,0,0],[1,0,0],[0,1,0],[0.25,1,0],[0.5,1,0],[0.75,1,0],[1,1,0],[0,0.25,0],[0,0.5,0],[0,0.75,0],[1,0.25,0],[1,0.5,0],[1,0.75,0]];points=[[0,0,0],[0.25,0,0],[0.5,0,0],[0.75,0,0],[1,0,0],[0,1,0],[0.25,1,0],[0.5,1,0],[0.75,1,0],[1,1,0],[0,0.25,0],[0,0.5,0],[0,0.75,0],[1,0.25,0],[1,0.5,0],[1,0.75,0]];outlineConnect=0;fontColor=#232F3E;gradientColor=#F34482;gradientDirection=north;fillColor=#BC1356;strokeColor=#ffffff;dashed=0;verticalLabelPosition=bottom;verticalAlign=top;align=center;html=1;fontSize=12;fontStyle=0;aspect=fixed;shape=mxgraph.aws4.resourceIcon;resIcon=mxgraph.aws4.cloudformation;" vertex="1" parent="1">
          <mxGeometry x="705" y="376" width="78" height="78" as="geometry" />
        </mxCell>
        <mxCell id="_74IzwcaJhtsTYrPn7xk-23" value="" style="sketch=0;points=[[0,0,0],[0.25,0,0],[0.5,0,0],[0.75,0,0],[1,0,0],[0,1,0],[0.25,1,0],[0.5,1,0],[0.75,1,0],[1,1,0],[0,0.25,0],[0,0.5,0],[0,0.75,0],[1,0.25,0],[1,0.5,0],[1,0.75,0]];outlineConnect=0;fontColor=#232F3E;gradientColor=#F78E04;gradientDirection=north;fillColor=#D05C17;strokeColor=#ffffff;dashed=0;verticalLabelPosition=bottom;verticalAlign=top;align=center;html=1;fontSize=12;fontStyle=0;aspect=fixed;shape=mxgraph.aws4.resourceIcon;resIcon=mxgraph.aws4.eks;" vertex="1" parent="1">
          <mxGeometry x="267" y="242" width="78" height="78" as="geometry" />
        </mxCell>
        <mxCell id="_74IzwcaJhtsTYrPn7xk-24" value="" style="sketch=0;points=[[0,0,0],[0.25,0,0],[0.5,0,0],[0.75,0,0],[1,0,0],[0,1,0],[0.25,1,0],[0.5,1,0],[0.75,1,0],[1,1,0],[0,0.25,0],[0,0.5,0],[0,0.75,0],[1,0.25,0],[1,0.5,0],[1,0.75,0]];outlineConnect=0;fontColor=#232F3E;gradientColor=#4D72F3;gradientDirection=north;fillColor=#3334B9;strokeColor=#ffffff;dashed=0;verticalLabelPosition=bottom;verticalAlign=top;align=center;html=1;fontSize=12;fontStyle=0;aspect=fixed;shape=mxgraph.aws4.resourceIcon;resIcon=mxgraph.aws4.codecommit;" vertex="1" parent="1">
          <mxGeometry x="267" y="481" width="78" height="78" as="geometry" />
        </mxCell>
      </root>
    </mxGraphModel>
  </diagram>
  <diagram id="DwCrOFtsWHXVb4Im4mES" name="Delete">
    <mxGraphModel dx="2954" dy="1128" grid="1" gridSize="10" guides="1" tooltips="1" connect="1" arrows="1" fold="1" page="1" pageScale="1" pageWidth="850" pageHeight="1400" math="0" shadow="0">
      <root>
        <mxCell id="0" />
        <mxCell id="1" parent="0" />
        <object label="&lt;b&gt;AWS CloudFormation&lt;/b&gt;" stencilType="cloudformation" id="uPhHWCfdUJVkzo8bs6gq-2">
          <mxCell style="points=[[0,0,0],[0.25,0,0],[0.5,0,0],[0.75,0,0],[1,0,0],[0,1,0],[0.25,1,0],[0.5,1,0],[0.75,1,0],[1,1,0],[0,0.25,0],[0,0.5,0],[0,0.75,0],[1,0.25,0],[1,0.5,0],[1,0.75,0]];outlineConnect=0;fontColor=#232F3E;gradientColor=#F34482;gradientDirection=north;fillColor=#BC1356;strokeColor=#ffffff;dashed=0;verticalLabelPosition=bottom;verticalAlign=top;align=center;html=1;fontSize=12;fontStyle=0;aspect=fixed;shape=mxgraph.aws20.resourceIcon;resIcon=mxgraph.aws20.cloudformation;" vertex="1" rdfUpgraded="1" assetTypeVersion="3" parent="1">
            <mxGeometry x="705" y="380" width="70" height="70" as="geometry" />
            <ResourceDescriptor resource="_:_0WKEjGSolQWEmS241A_3-1" serialization-version="v0" as="resourceDescriptor">
              <SemanticDataContainer serialization-version="v0">
                <StringLiteral content="_0WKEjGSolQWEmS241A_3-1" property="https://ontology.security.amazon.dev/foundation/diagram-visualization/a2255956-c3df-4c2c-b489-c307f68abc97" />
                <IRI resource="https://ontology.security.amazon.dev/design-inspector/components/84a80b5f-5642-4a17-9585-ebfdb65f4bec" property="https://ontology.security.amazon.dev/foundation/system-modeling/04539597-4283-4f65-8090-ae67f9d3e949" />
                <IRI resource="https://ontology.security.amazon.dev/design-inspector/components/4f51991f-f3c6-4a47-9b00-013560ab92f4" property="http://www.w3.org/1999/02/22-rdf-syntax-ns#type" />
                <IRI resource="https://ontology.security.amazon.dev/foundation/graph-structure/0b4eeac8-04e5-4e85-869c-bd56fb947b7b" property="http://www.w3.org/1999/02/22-rdf-syntax-ns#type" />
                <StringLiteral content="AWS CloudFormation" property="http://www.w3.org/2000/01/rdf-schema#label" />
                <StringLiteral content="UnknownPage" property="https://ontology.security.amazon.dev/foundation/diagram-visualization/05cc531c-d241-49c3-80dc-bd3777c5426f" />
              </SemanticDataContainer>
            </ResourceDescriptor>
          </mxCell>
        </object>
        <object label="&lt;b&gt;Kubernetes API Server&lt;/b&gt;" stencilType="eks" id="uPhHWCfdUJVkzo8bs6gq-3">
          <mxCell style="points=[[0,0,0],[0.25,0,0],[0.5,0,0],[0.75,0,0],[1,0,0],[0,1,0],[0.25,1,0],[0.5,1,0],[0.75,1,0],[1,1,0],[0,0.25,0],[0,0.5,0],[0,0.75,0],[1,0.25,0],[1,0.5,0],[1,0.75,0]];outlineConnect=0;fontColor=#232F3E;gradientColor=#F78E04;gradientDirection=north;fillColor=#D05C17;strokeColor=#ffffff;dashed=0;verticalLabelPosition=top;verticalAlign=bottom;align=center;html=1;fontSize=12;fontStyle=0;aspect=fixed;shape=mxgraph.aws20.resourceIcon;resIcon=mxgraph.aws20.eks;labelPosition=center;" vertex="1" rdfUpgraded="1" assetTypeVersion="3" parent="1">
            <mxGeometry x="265" y="240" width="80" height="80" as="geometry" />
            <ResourceDescriptor resource="_:_0WKEjGSolQWEmS241A_3-4" serialization-version="v0" as="resourceDescriptor">
              <SemanticDataContainer serialization-version="v0">
                <StringLiteral content="_0WKEjGSolQWEmS241A_3-4" property="https://ontology.security.amazon.dev/foundation/diagram-visualization/a2255956-c3df-4c2c-b489-c307f68abc97" />
                <IRI resource="https://ontology.security.amazon.dev/design-inspector/components/aaab50ab-4afb-40c3-9a78-a6373ff63d7c" property="https://ontology.security.amazon.dev/foundation/system-modeling/04539597-4283-4f65-8090-ae67f9d3e949" />
                <IRI resource="https://ontology.security.amazon.dev/foundation/graph-structure/0b4eeac8-04e5-4e85-869c-bd56fb947b7b" property="http://www.w3.org/1999/02/22-rdf-syntax-ns#type" />
                <StringLiteral content="Kubernetes API Server" property="http://www.w3.org/2000/01/rdf-schema#label" />
                <StringLiteral content="UnknownPage" property="https://ontology.security.amazon.dev/foundation/diagram-visualization/05cc531c-d241-49c3-80dc-bd3777c5426f" />
              </SemanticDataContainer>
            </ResourceDescriptor>
          </mxCell>
        </object>
        <object label="&lt;b&gt;Flux Source Controller&lt;/b&gt;" stencilType="container" id="uPhHWCfdUJVkzo8bs6gq-4">
          <mxCell style="sketch=0;outlineConnect=0;fontColor=#232F3E;gradientColor=none;fillColor=#D05C17;strokeColor=none;dashed=0;verticalLabelPosition=bottom;verticalAlign=top;align=center;html=1;fontSize=12;fontStyle=0;aspect=fixed;pointerEvents=1;shape=mxgraph.aws4.container_1;fontFamily=Helvetica;" vertex="1" rdfUpgraded="1" assetTypeVersion="3" parent="1">
            <mxGeometry x="515" y="480" width="80" height="80" as="geometry" />
            <ResourceDescriptor resource="_:_0WKEjGSolQWEmS241A_3-5" serialization-version="v0" as="resourceDescriptor">
              <SemanticDataContainer serialization-version="v0">
                <StringLiteral content="_0WKEjGSolQWEmS241A_3-5" property="https://ontology.security.amazon.dev/foundation/diagram-visualization/a2255956-c3df-4c2c-b489-c307f68abc97" />
                <IRI resource="https://ontology.security.amazon.dev/design-inspector/components/84a80b5f-5642-4a17-9585-ebfdb65f4bec" property="https://ontology.security.amazon.dev/foundation/system-modeling/04539597-4283-4f65-8090-ae67f9d3e949" />
                <IRI resource="https://ontology.security.amazon.dev/design-inspector/components/4f51991f-f3c6-4a47-9b00-013560ab92f4" property="http://www.w3.org/1999/02/22-rdf-syntax-ns#type" />
                <IRI resource="https://ontology.security.amazon.dev/foundation/graph-structure/0b4eeac8-04e5-4e85-869c-bd56fb947b7b" property="http://www.w3.org/1999/02/22-rdf-syntax-ns#type" />
                <StringLiteral content="Flux Source Controller" property="http://www.w3.org/2000/01/rdf-schema#label" />
                <StringLiteral content="UnknownPage" property="https://ontology.security.amazon.dev/foundation/diagram-visualization/05cc531c-d241-49c3-80dc-bd3777c5426f" />
              </SemanticDataContainer>
            </ResourceDescriptor>
          </mxCell>
        </object>
        <object label="" stencilType="generic-channel" id="uPhHWCfdUJVkzo8bs6gq-5">
          <mxCell style="edgeStyle=orthogonalEdgeStyle;rounded=0;html=1;entryX=1;entryY=0.5;entryDx=0;entryDy=0;entryPerimeter=0;jettySize=auto;orthogonalLoop=1;" edge="1" rdfUpgraded="1" assetTypeVersion="3" parent="1" source="uPhHWCfdUJVkzo8bs6gq-7" target="uPhHWCfdUJVkzo8bs6gq-3">
            <mxGeometry relative="1" as="geometry" />
            <ResourceDescriptor resource="_:_0WKEjGSolQWEmS241A_3-19" serialization-version="v0" as="resourceDescriptor">
              <SemanticDataContainer serialization-version="v0">
                <StringLiteral content="_0WKEjGSolQWEmS241A_3-19" property="https://ontology.security.amazon.dev/foundation/diagram-visualization/a2255956-c3df-4c2c-b489-c307f68abc97" />
                <IRI resource="https://ontology.security.amazon.dev/design-inspector/components/84a80b5f-5642-4a17-9585-ebfdb65f4bec" property="https://ontology.security.amazon.dev/foundation/system-modeling/04539597-4283-4f65-8090-ae67f9d3e949" />
                <StringLiteral content="UnknownPage" property="https://ontology.security.amazon.dev/foundation/diagram-visualization/05cc531c-d241-49c3-80dc-bd3777c5426f" />
                <IRI resource="https://ontology.security.amazon.dev/foundation/graph-structure/65157620-74b7-470e-bd9d-b9bf56b6cb4b" property="http://www.w3.org/1999/02/22-rdf-syntax-ns#type" />
                <BlankNodeID resource="_:_0WKEjGSolQWEmS241A_3-8" property="https://ontology.security.amazon.dev/foundation/graph-structure/d1fc066e-3862-4ae0-8304-6cef42f40a50" />
                <BlankNodeID resource="_:_0WKEjGSolQWEmS241A_3-4" property="https://ontology.security.amazon.dev/foundation/graph-structure/617be0ed-cf17-4a01-a75d-81ed3a472532" />
              </SemanticDataContainer>
            </ResourceDescriptor>
          </mxCell>
        </object>
        <object label="" stencilType="generic-channel" id="uPhHWCfdUJVkzo8bs6gq-6">
          <mxCell style="edgeStyle=orthogonalEdgeStyle;rounded=0;html=1;entryX=0;entryY=0.5;entryDx=0;entryDy=0;entryPerimeter=0;jettySize=auto;orthogonalLoop=1;" edge="1" rdfUpgraded="1" assetTypeVersion="3" parent="1" target="uPhHWCfdUJVkzo8bs6gq-2">
            <mxGeometry relative="1" as="geometry">
              <mxPoint x="600" y="290" as="sourcePoint" />
            </mxGeometry>
            <ResourceDescriptor resource="_:_0WKEjGSolQWEmS241A_3-21" serialization-version="v0" as="resourceDescriptor">
              <SemanticDataContainer serialization-version="v0">
                <StringLiteral content="_0WKEjGSolQWEmS241A_3-21" property="https://ontology.security.amazon.dev/foundation/diagram-visualization/a2255956-c3df-4c2c-b489-c307f68abc97" />
                <StringLiteral content="UnknownPage" property="https://ontology.security.amazon.dev/foundation/diagram-visualization/05cc531c-d241-49c3-80dc-bd3777c5426f" />
                <IRI resource="https://ontology.security.amazon.dev/design-inspector/components/84a80b5f-5642-4a17-9585-ebfdb65f4bec" property="https://ontology.security.amazon.dev/foundation/system-modeling/04539597-4283-4f65-8090-ae67f9d3e949" />
                <IRI resource="https://ontology.security.amazon.dev/foundation/graph-structure/65157620-74b7-470e-bd9d-b9bf56b6cb4b" property="http://www.w3.org/1999/02/22-rdf-syntax-ns#type" />
                <BlankNodeID resource="_:_0WKEjGSolQWEmS241A_3-1" property="https://ontology.security.amazon.dev/foundation/graph-structure/617be0ed-cf17-4a01-a75d-81ed3a472532" />
              </SemanticDataContainer>
            </ResourceDescriptor>
          </mxCell>
        </object>
        <object label="&lt;b&gt;Flux CFN Controller&lt;br&gt;&lt;/b&gt;" stencilType="container" id="uPhHWCfdUJVkzo8bs6gq-7">
          <mxCell style="sketch=0;outlineConnect=0;fontColor=#232F3E;gradientColor=none;fillColor=#D05C17;strokeColor=none;dashed=0;verticalLabelPosition=top;verticalAlign=bottom;align=center;html=1;fontSize=12;fontStyle=0;aspect=fixed;pointerEvents=1;shape=mxgraph.aws4.container_1;fontFamily=Helvetica;labelPosition=center;" vertex="1" rdfUpgraded="1" assetTypeVersion="3" parent="1">
            <mxGeometry x="515" y="240" width="80" height="80" as="geometry" />
            <ResourceDescriptor resource="_:_0WKEjGSolQWEmS241A_3-8" serialization-version="v0" as="resourceDescriptor">
              <SemanticDataContainer serialization-version="v0">
                <IRI resource="https://ontology.security.amazon.dev/design-inspector/components/4f51991f-f3c6-4a47-9b00-013560ab92f4" property="http://www.w3.org/1999/02/22-rdf-syntax-ns#type" />
                <IRI resource="https://ontology.security.amazon.dev/foundation/graph-structure/0b4eeac8-04e5-4e85-869c-bd56fb947b7b" property="http://www.w3.org/1999/02/22-rdf-syntax-ns#type" />
                <IRI resource="https://ontology.security.amazon.dev/design-inspector/components/84a80b5f-5642-4a17-9585-ebfdb65f4bec" property="https://ontology.security.amazon.dev/foundation/system-modeling/04539597-4283-4f65-8090-ae67f9d3e949" />
                <StringLiteral content="UnknownPage" property="https://ontology.security.amazon.dev/foundation/diagram-visualization/05cc531c-d241-49c3-80dc-bd3777c5426f" />
                <StringLiteral content="Flux CFN Controller" property="http://www.w3.org/2000/01/rdf-schema#label" />
                <StringLiteral content="_0WKEjGSolQWEmS241A_3-8" property="https://ontology.security.amazon.dev/foundation/diagram-visualization/a2255956-c3df-4c2c-b489-c307f68abc97" />
              </SemanticDataContainer>
            </ResourceDescriptor>
          </mxCell>
        </object>
        <object label="&lt;b&gt;Git Repository&lt;br&gt;&lt;/b&gt;" stencilType="codecommit" id="uPhHWCfdUJVkzo8bs6gq-8">
          <mxCell style="points=[[0,0,0],[0.25,0,0],[0.5,0,0],[0.75,0,0],[1,0,0],[0,1,0],[0.25,1,0],[0.5,1,0],[0.75,1,0],[1,1,0],[0,0.25,0],[0,0.5,0],[0,0.75,0],[1,0.25,0],[1,0.5,0],[1,0.75,0]];outlineConnect=0;fontColor=#232F3E;gradientColor=#4D72F3;gradientDirection=north;fillColor=#3334B9;strokeColor=#ffffff;dashed=0;verticalLabelPosition=bottom;verticalAlign=top;align=center;html=1;fontSize=12;fontStyle=0;aspect=fixed;shape=mxgraph.aws20.resourceIcon;resIcon=mxgraph.aws20.codecommit;" vertex="1" rdfUpgraded="1" assetTypeVersion="3" parent="1">
            <mxGeometry x="265" y="480" width="80" height="80" as="geometry" />
            <ResourceDescriptor resource="_:_0WKEjGSolQWEmS241A_3-11" serialization-version="v0" as="resourceDescriptor">
              <SemanticDataContainer serialization-version="v0">
                <StringLiteral content="_0WKEjGSolQWEmS241A_3-11" property="https://ontology.security.amazon.dev/foundation/diagram-visualization/a2255956-c3df-4c2c-b489-c307f68abc97" />
                <IRI resource="https://ontology.security.amazon.dev/design-inspector/components/84a80b5f-5642-4a17-9585-ebfdb65f4bec" property="https://ontology.security.amazon.dev/foundation/system-modeling/04539597-4283-4f65-8090-ae67f9d3e949" />
                <IRI resource="https://ontology.security.amazon.dev/design-inspector/components/4f51991f-f3c6-4a47-9b00-013560ab92f4" property="http://www.w3.org/1999/02/22-rdf-syntax-ns#type" />
                <IRI resource="https://ontology.security.amazon.dev/foundation/graph-structure/0b4eeac8-04e5-4e85-869c-bd56fb947b7b" property="http://www.w3.org/1999/02/22-rdf-syntax-ns#type" />
                <StringLiteral content="Git Repository" property="http://www.w3.org/2000/01/rdf-schema#label" />
                <StringLiteral content="UnknownPage" property="https://ontology.security.amazon.dev/foundation/diagram-visualization/05cc531c-d241-49c3-80dc-bd3777c5426f" />
              </SemanticDataContainer>
            </ResourceDescriptor>
          </mxCell>
        </object>
        <object label="" stencilType="generic-channel" id="uPhHWCfdUJVkzo8bs6gq-9">
          <mxCell style="edgeStyle=orthogonalEdgeStyle;rounded=0;html=1;entryX=0;entryY=0.5;entryDx=0;entryDy=0;entryPerimeter=0;jettySize=auto;orthogonalLoop=1;" edge="1" rdfUpgraded="1" assetTypeVersion="3" parent="1" target="uPhHWCfdUJVkzo8bs6gq-3">
            <mxGeometry relative="1" as="geometry">
              <mxPoint x="110" y="380" as="sourcePoint" />
            </mxGeometry>
            <ResourceDescriptor resource="_:_0WKEjGSolQWEmS241A_3-14" serialization-version="v0" as="resourceDescriptor">
              <SemanticDataContainer serialization-version="v0">
                <StringLiteral content="_0WKEjGSolQWEmS241A_3-14" property="https://ontology.security.amazon.dev/foundation/diagram-visualization/a2255956-c3df-4c2c-b489-c307f68abc97" />
                <StringLiteral content="UnknownPage" property="https://ontology.security.amazon.dev/foundation/diagram-visualization/05cc531c-d241-49c3-80dc-bd3777c5426f" />
                <IRI resource="https://ontology.security.amazon.dev/foundation/graph-structure/65157620-74b7-470e-bd9d-b9bf56b6cb4b" property="http://www.w3.org/1999/02/22-rdf-syntax-ns#type" />
                <IRI resource="https://ontology.security.amazon.dev/design-inspector/components/84a80b5f-5642-4a17-9585-ebfdb65f4bec" property="https://ontology.security.amazon.dev/foundation/system-modeling/04539597-4283-4f65-8090-ae67f9d3e949" />
                <BlankNodeID resource="_:_0WKEjGSolQWEmS241A_3-4" property="https://ontology.security.amazon.dev/foundation/graph-structure/617be0ed-cf17-4a01-a75d-81ed3a472532" />
              </SemanticDataContainer>
            </ResourceDescriptor>
          </mxCell>
        </object>
        <object label="&lt;div&gt;&lt;b&gt;User&lt;/b&gt;&lt;/div&gt;" stencilType="actor" id="uPhHWCfdUJVkzo8bs6gq-10">
          <mxCell style="shape=umlActor;verticalLabelPosition=bottom;labelBackgroundColor=#ffffff;verticalAlign=top;html=1;outlineConnect=0;" vertex="1" rdfUpgraded="1" assetTypeVersion="3" parent="1">
            <mxGeometry x="50" y="340" width="50" height="100" as="geometry" />
            <ResourceDescriptor resource="_:_0WKEjGSolQWEmS241A_3-12" serialization-version="v0" as="resourceDescriptor">
              <SemanticDataContainer serialization-version="v0">
                <StringLiteral content="_0WKEjGSolQWEmS241A_3-12" property="https://ontology.security.amazon.dev/foundation/diagram-visualization/a2255956-c3df-4c2c-b489-c307f68abc97" />
                <IRI resource="https://ontology.security.amazon.dev/foundation/system-modeling/a8c50ddd-aa98-48ce-a1ac-5a95ff514e73" property="https://ontology.security.amazon.dev/foundation/system-modeling/04539597-4283-4f65-8090-ae67f9d3e949" />
                <IRI resource="https://ontology.security.amazon.dev/foundation/graph-structure/0b4eeac8-04e5-4e85-869c-bd56fb947b7b" property="http://www.w3.org/1999/02/22-rdf-syntax-ns#type" />
                <StringLiteral content="User" property="http://www.w3.org/2000/01/rdf-schema#label" />
                <StringLiteral content="UnknownPage" property="https://ontology.security.amazon.dev/foundation/diagram-visualization/05cc531c-d241-49c3-80dc-bd3777c5426f" />
              </SemanticDataContainer>
            </ResourceDescriptor>
          </mxCell>
        </object>
        <object label="&lt;b&gt;1&lt;/b&gt;" stencilType="text" id="uPhHWCfdUJVkzo8bs6gq-11">
          <mxCell style="text;html=1;strokeColor=none;fillColor=none;align=right;verticalAlign=middle;whiteSpace=wrap;rounded=0;" vertex="1" rdfUpgraded="1" assetTypeVersion="3" parent="1">
            <mxGeometry x="140" y="320" width="40" height="20" as="geometry" />
            <ResourceDescriptor resource="_:_0WKEjGSolQWEmS241A_3-29" serialization-version="v0" as="resourceDescriptor">
              <SemanticDataContainer serialization-version="v0">
                <IRI resource="https://ontology.security.amazon.dev/design-inspector/components/84a80b5f-5642-4a17-9585-ebfdb65f4bec" property="https://ontology.security.amazon.dev/foundation/system-modeling/04539597-4283-4f65-8090-ae67f9d3e949" />
                <IRI resource="https://ontology.security.amazon.dev/design-inspector/components/4f51991f-f3c6-4a47-9b00-013560ab92f4" property="http://www.w3.org/1999/02/22-rdf-syntax-ns#type" />
                <IRI resource="https://ontology.security.amazon.dev/foundation/graph-structure/0b4eeac8-04e5-4e85-869c-bd56fb947b7b" property="http://www.w3.org/1999/02/22-rdf-syntax-ns#type" />
                <StringLiteral content="UnknownPage" property="https://ontology.security.amazon.dev/foundation/diagram-visualization/05cc531c-d241-49c3-80dc-bd3777c5426f" />
                <StringLiteral content="1" property="http://www.w3.org/2000/01/rdf-schema#label" />
                <StringLiteral content="_0WKEjGSolQWEmS241A_3-29" property="https://ontology.security.amazon.dev/foundation/diagram-visualization/a2255956-c3df-4c2c-b489-c307f68abc97" />
              </SemanticDataContainer>
            </ResourceDescriptor>
          </mxCell>
        </object>
        <object label="&lt;b&gt;2, 4&lt;br&gt;&lt;/b&gt;" stencilType="text" id="uPhHWCfdUJVkzo8bs6gq-12">
          <mxCell style="text;html=1;strokeColor=none;fillColor=none;align=center;verticalAlign=middle;whiteSpace=wrap;rounded=0;" vertex="1" rdfUpgraded="1" assetTypeVersion="3" parent="1">
            <mxGeometry x="400" y="257" width="60" height="20" as="geometry" />
            <ResourceDescriptor resource="_:_0WKEjGSolQWEmS241A_3-30" serialization-version="v0" as="resourceDescriptor">
              <SemanticDataContainer serialization-version="v0">
                <IRI resource="https://ontology.security.amazon.dev/design-inspector/components/84a80b5f-5642-4a17-9585-ebfdb65f4bec" property="https://ontology.security.amazon.dev/foundation/system-modeling/04539597-4283-4f65-8090-ae67f9d3e949" />
                <IRI resource="https://ontology.security.amazon.dev/design-inspector/components/4f51991f-f3c6-4a47-9b00-013560ab92f4" property="http://www.w3.org/1999/02/22-rdf-syntax-ns#type" />
                <IRI resource="https://ontology.security.amazon.dev/foundation/graph-structure/0b4eeac8-04e5-4e85-869c-bd56fb947b7b" property="http://www.w3.org/1999/02/22-rdf-syntax-ns#type" />
                <StringLiteral content="UnknownPage" property="https://ontology.security.amazon.dev/foundation/diagram-visualization/05cc531c-d241-49c3-80dc-bd3777c5426f" />
                <StringLiteral content="2, 4" property="http://www.w3.org/2000/01/rdf-schema#label" />
                <StringLiteral content="_0WKEjGSolQWEmS241A_3-30" property="https://ontology.security.amazon.dev/foundation/diagram-visualization/a2255956-c3df-4c2c-b489-c307f68abc97" />
              </SemanticDataContainer>
            </ResourceDescriptor>
          </mxCell>
        </object>
        <object label="&lt;b&gt;3&lt;/b&gt;" stencilType="text" id="uPhHWCfdUJVkzo8bs6gq-13">
          <mxCell style="text;html=1;strokeColor=none;fillColor=none;align=left;verticalAlign=middle;whiteSpace=wrap;rounded=0;" vertex="1" rdfUpgraded="1" assetTypeVersion="3" parent="1">
            <mxGeometry x="662" y="330" width="40" height="20" as="geometry" />
            <ResourceDescriptor resource="_:_0WKEjGSolQWEmS241A_3-33" serialization-version="v0" as="resourceDescriptor">
              <SemanticDataContainer serialization-version="v0">
                <IRI resource="https://ontology.security.amazon.dev/design-inspector/components/84a80b5f-5642-4a17-9585-ebfdb65f4bec" property="https://ontology.security.amazon.dev/foundation/system-modeling/04539597-4283-4f65-8090-ae67f9d3e949" />
                <IRI resource="https://ontology.security.amazon.dev/design-inspector/components/4f51991f-f3c6-4a47-9b00-013560ab92f4" property="http://www.w3.org/1999/02/22-rdf-syntax-ns#type" />
                <IRI resource="https://ontology.security.amazon.dev/foundation/graph-structure/0b4eeac8-04e5-4e85-869c-bd56fb947b7b" property="http://www.w3.org/1999/02/22-rdf-syntax-ns#type" />
                <StringLiteral content="UnknownPage" property="https://ontology.security.amazon.dev/foundation/diagram-visualization/05cc531c-d241-49c3-80dc-bd3777c5426f" />
                <StringLiteral content="3" property="http://www.w3.org/2000/01/rdf-schema#label" />
                <StringLiteral content="_0WKEjGSolQWEmS241A_3-33" property="https://ontology.security.amazon.dev/foundation/diagram-visualization/a2255956-c3df-4c2c-b489-c307f68abc97" />
              </SemanticDataContainer>
            </ResourceDescriptor>
          </mxCell>
        </object>
        <object label="&lt;div&gt;&lt;b&gt;S3 bucket&lt;/b&gt;&lt;/div&gt;&lt;div&gt;&lt;b&gt;for template files&lt;br&gt;&lt;/b&gt;&lt;/div&gt;" stencilType="bucket" id="uPhHWCfdUJVkzo8bs6gq-14">
          <mxCell style="sketch=0;outlineConnect=0;fontColor=#232F3E;gradientColor=none;fillColor=#277116;strokeColor=none;dashed=0;verticalLabelPosition=top;verticalAlign=bottom;align=center;html=1;fontSize=12;fontStyle=0;aspect=fixed;pointerEvents=1;shape=mxgraph.aws4.bucket;fontFamily=Helvetica;labelPosition=center;" vertex="1" rdfUpgraded="1" assetTypeVersion="3" parent="1">
            <mxGeometry x="710" y="250" width="60" height="60" as="geometry" />
            <ResourceDescriptor resource="_:_nm1d2nPAYFvigHrUNV_H-35" serialization-version="v0" as="resourceDescriptor">
              <SemanticDataContainer serialization-version="v0">
                <StringLiteral content="_nm1d2nPAYFvigHrUNV_H-35" property="https://ontology.security.amazon.dev/foundation/diagram-visualization/a2255956-c3df-4c2c-b489-c307f68abc97" />
                <IRI resource="https://ontology.security.amazon.dev/design-inspector/components/ee44b39a-c4bb-4022-b961-2f48ec193e80" property="https://ontology.security.amazon.dev/foundation/system-modeling/04539597-4283-4f65-8090-ae67f9d3e949" />
                <IRI resource="https://ontology.security.amazon.dev/foundation/graph-structure/0b4eeac8-04e5-4e85-869c-bd56fb947b7b" property="http://www.w3.org/1999/02/22-rdf-syntax-ns#type" />
                <StringLiteral content="S3 bucketfor template files" property="http://www.w3.org/2000/01/rdf-schema#label" />
                <StringLiteral content="UnknownPage" property="https://ontology.security.amazon.dev/foundation/diagram-visualization/05cc531c-d241-49c3-80dc-bd3777c5426f" />
              </SemanticDataContainer>
            </ResourceDescriptor>
          </mxCell>
        </object>
        <mxCell id="uPhHWCfdUJVkzo8bs6gq-15" value="" style="sketch=0;points=[[0,0,0],[0.25,0,0],[0.5,0,0],[0.75,0,0],[1,0,0],[0,1,0],[0.25,1,0],[0.5,1,0],[0.75,1,0],[1,1,0],[0,0.25,0],[0,0.5,0],[0,0.75,0],[1,0.25,0],[1,0.5,0],[1,0.75,0]];outlineConnect=0;fontColor=#232F3E;gradientColor=#4D72F3;gradientDirection=north;fillColor=#3334B9;strokeColor=#ffffff;dashed=0;verticalLabelPosition=bottom;verticalAlign=top;align=center;html=1;fontSize=12;fontStyle=0;aspect=fixed;shape=mxgraph.aws4.resourceIcon;resIcon=mxgraph.aws4.codecommit;" vertex="1" parent="1">
          <mxGeometry x="267" y="482" width="78" height="78" as="geometry" />
        </mxCell>
        <mxCell id="uPhHWCfdUJVkzo8bs6gq-16" value="" style="sketch=0;points=[[0,0,0],[0.25,0,0],[0.5,0,0],[0.75,0,0],[1,0,0],[0,1,0],[0.25,1,0],[0.5,1,0],[0.75,1,0],[1,1,0],[0,0.25,0],[0,0.5,0],[0,0.75,0],[1,0.25,0],[1,0.5,0],[1,0.75,0]];outlineConnect=0;fontColor=#232F3E;gradientColor=#F78E04;gradientDirection=north;fillColor=#D05C17;strokeColor=#ffffff;dashed=0;verticalLabelPosition=bottom;verticalAlign=top;align=center;html=1;fontSize=12;fontStyle=0;aspect=fixed;shape=mxgraph.aws4.resourceIcon;resIcon=mxgraph.aws4.eks;" vertex="1" parent="1">
          <mxGeometry x="267" y="242" width="78" height="78" as="geometry" />
        </mxCell>
        <mxCell id="uPhHWCfdUJVkzo8bs6gq-17" value="" style="sketch=0;points=[[0,0,0],[0.25,0,0],[0.5,0,0],[0.75,0,0],[1,0,0],[0,1,0],[0.25,1,0],[0.5,1,0],[0.75,1,0],[1,1,0],[0,0.25,0],[0,0.5,0],[0,0.75,0],[1,0.25,0],[1,0.5,0],[1,0.75,0]];points=[[0,0,0],[0.25,0,0],[0.5,0,0],[0.75,0,0],[1,0,0],[0,1,0],[0.25,1,0],[0.5,1,0],[0.75,1,0],[1,1,0],[0,0.25,0],[0,0.5,0],[0,0.75,0],[1,0.25,0],[1,0.5,0],[1,0.75,0]];outlineConnect=0;fontColor=#232F3E;gradientColor=#F34482;gradientDirection=north;fillColor=#BC1356;strokeColor=#ffffff;dashed=0;verticalLabelPosition=bottom;verticalAlign=top;align=center;html=1;fontSize=12;fontStyle=0;aspect=fixed;shape=mxgraph.aws4.resourceIcon;resIcon=mxgraph.aws4.cloudformation;" vertex="1" parent="1">
          <mxGeometry x="705" y="372" width="78" height="78" as="geometry" />
        </mxCell>
      </root>
    </mxGraphModel>
  </diagram>
</mxfile>
